<svg xmlns="http://www.w3.org/2000/svg" xmlns:xlink="http://www.w3.org/1999/xlink" viewBox="0 0 63.5 63.5"><defs><style>.cls-1{fill:#fff;}.cls-12,.cls-13,.cls-14,.cls-2{fill:none;}.cls-3{clip-path:url(#clip-path);}.cls-4{clip-path:url(#clip-path-2);}.cls-5{fill:#010101;}.cls-6{mask:url(#mask);}.cls-7,.cls-9{fill-rule:evenodd;isolation:isolate;}.cls-7{opacity:0.52;fill:url(#linear-gradient);}.cls-8{mask:url(#mask-2-2);}.cls-9{opacity:0.8;fill:url(#linear-gradient-2);}.cls-10{fill:#58595b;}.cls-11{fill:#808285;}.cls-12,.cls-13{stroke:#414042;stroke-linecap:round;}.cls-12,.cls-13,.cls-14,.cls-15{stroke-miterlimit:10;}.cls-12{stroke-width:0.5px;}.cls-14,.cls-15{stroke:#d1d3d4;}.cls-15{fill:#d1d3d4;}.cls-16{fill:#fbb040;}.cls-17{fill:#00aeef;}.cls-18{fill:#ed1c24;}</style><clipPath id="clip-path"><rect class="cls-2" x="-86.99" y="5.1" width="70.7" height="22.38"/></clipPath><clipPath id="clip-path-2"><rect class="cls-2" x="-82.88" y="5.1" width="61.54" height="56.99"/></clipPath><mask id="mask" x="-99.35" y="3.1" width="126.07" height="62.45" maskUnits="userSpaceOnUse"><g id="mask-2"><rect id="path-1" class="cls-1" x="-86.62" y="3.1" width="94.71" height="60.46"/></g></mask><linearGradient id="linear-gradient" x1="-260.98" y1="83.34" x2="-260.91" y2="83.34" gradientTransform="matrix(1737, 0, 0, -443.52, 453226.13, 37013.42)" gradientUnits="userSpaceOnUse"><stop offset="0" stop-color="#373737"/><stop offset="1" stop-color="#4a4a4a"/></linearGradient><mask id="mask-2-2" x="-86.62" y="3.1" width="140.44" height="62.45" maskUnits="userSpaceOnUse"><g id="mask-2-3" data-name="mask-2"><rect id="path-1-2" data-name="path-1" class="cls-1" x="-86.62" y="3.1" width="94.71" height="60.46"/></g></mask><linearGradient id="linear-gradient-2" x1="-261.21" y1="83.6" x2="-261.28" y2="83.6" gradientTransform="matrix(1570.5, 0, 0, -389.48, 410280.29, 32611.25)" gradientUnits="userSpaceOnUse"><stop offset="0" stop-color="#575757"/><stop offset="1" stop-color="#7c7b7b"/></linearGradient></defs><g id="Layer_2" data-name="Layer 2"><g class="cls-3"><g class="cls-4"><g id="Illustrations-Dark-V2"><g id="placeholder-3"><g id="Shape"><rect id="path-1-3" data-name="path-1" class="cls-5" x="-86.62" y="3.1" width="94.71" height="60.46"/></g><g class="cls-6"><path id="Shape-2" data-name="Shape" class="cls-7" d="M-98.35,65.56c23.74,0,36.72-32.19,61.36-32.19S3.11,65.56,24.7,65.56Z"/></g><g class="cls-8"><path id="Shape-3" data-name="Shape" class="cls-9" d="M-59.26,65.56c21.47,0,33.21-28.27,55.49-28.27S32.48,65.56,52,65.56Z"/></g></g></g></g></g><rect class="cls-10" x="1.23" y="20.82" width="28.56" height="17.45"/><rect class="cls-11" x="26.23" y="30.82" width="28.56" height="17.45"/><line class="cls-12" x1="33.22" y1="14.12" x2="50.89" y2="14.12"/><line class="cls-12" x1="33.22" y1="15.12" x2="50.89" y2="15.12"/><line class="cls-12" x1="33.22" y1="16.12" x2="50.89" y2="16.12"/><line class="cls-12" x1="33.22" y1="17.12" x2="50.89" y2="17.12"/><line class="cls-12" x1="33.22" y1="19.12" x2="50.89" y2="19.12"/><line class="cls-12" x1="33.22" y1="20.12" x2="50.89" y2="20.12"/><line class="cls-12" x1="33.22" y1="21.12" x2="50.89" y2="21.12"/><line class="cls-12" x1="33.22" y1="22.12" x2="50.89" y2="22.12"/><line class="cls-12" x1="33.22" y1="24.12" x2="50.89" y2="24.12"/><line class="cls-12" x1="33.22" y1="25.12" x2="50.89" y2="25.12"/><line class="cls-12" x1="33.22" y1="26.12" x2="50.89" y2="26.12"/><line class="cls-12" x1="33.22" y1="27.12" x2="50.89" y2="27.12"/><line class="cls-13" x1="10.22" y1="14.12" x2="21.86" y2="14.12"/><line class="cls-13" x1="10.22" y1="16.12" x2="21.86" y2="16.12"/><line class="cls-13" x1="10.22" y1="18.12" x2="21.86" y2="18.12"/></g><g id="Layer_1" data-name="Layer 1"><rect class="cls-14" x="0.5" y="0.5" width="62.5" height="62.5"/><rect class="cls-15" x="0.5" y="0.5" width="62.5" height="4.51"/><circle class="cls-16" cx="55.06" cy="2.75" r="1"/><circle class="cls-17" cx="58.06" cy="2.75" r="1"/><circle class="cls-18" cx="61.06" cy="2.75" r="1"/></g></svg>