<svg xmlns="http://www.w3.org/2000/svg" viewBox="0 0 63.5 63.5"><defs><style>.cls-1,.cls-2,.cls-8,.cls-9{fill:none;}.cls-1,.cls-8,.cls-9{stroke:#231f20;}.cls-1,.cls-2,.cls-3,.cls-8,.cls-9{stroke-miterlimit:10;}.cls-1,.cls-9{stroke-width:0.5px;}.cls-2,.cls-3{stroke:#d1d3d4;}.cls-3{fill:#d1d3d4;}.cls-4{fill:#fbb040;}.cls-5{fill:#00aeef;}.cls-6{fill:#ed1c24;}.cls-7{fill:#231f20;}.cls-8,.cls-9{stroke-linecap:round;}</style></defs><g id="Layer_1" data-name="Layer 1"><rect class="cls-1" x="3.09" y="23.45" width="16.15" height="13.46" transform="translate(22.33 60.36) rotate(180)"/><rect class="cls-1" x="23.09" y="23.45" width="16.15" height="13.46" transform="translate(62.33 60.36) rotate(180)"/><rect class="cls-1" x="43.09" y="23.45" width="16.15" height="13.46" transform="translate(102.33 60.36) rotate(180)"/><rect class="cls-2" x="0.5" y="0.5" width="62.5" height="62.5"/><rect class="cls-3" x="0.5" y="0.5" width="62.5" height="4.51"/><circle class="cls-4" cx="55.06" cy="2.75" r="1"/><circle class="cls-5" cx="58.06" cy="2.75" r="1"/><circle class="cls-6" cx="61.06" cy="2.75" r="1"/><rect class="cls-7" x="8.22" y="26.08" width="5.58" height="2.74"/><line class="cls-8" x1="6.28" y1="31.21" x2="16.3" y2="31.21"/><line class="cls-9" x1="6.28" y1="33.21" x2="16.3" y2="33.21"/><rect class="cls-7" x="28.22" y="26.08" width="5.58" height="2.74"/><line class="cls-8" x1="26.28" y1="31.21" x2="36.3" y2="31.21"/><line class="cls-9" x1="26.28" y1="33.21" x2="36.3" y2="33.21"/><rect class="cls-7" x="48.22" y="26.08" width="5.58" height="2.74"/><line class="cls-8" x1="46.28" y1="31.21" x2="56.3" y2="31.21"/><line class="cls-9" x1="46.28" y1="33.21" x2="56.3" y2="33.21"/></g></svg>