<svg xmlns="http://www.w3.org/2000/svg" viewBox="0 0 63.5 63.5"><defs><style>.cls-1,.cls-2,.cls-7{fill:none;}.cls-1,.cls-7{stroke:#414042;stroke-linecap:round;}.cls-1,.cls-2,.cls-3,.cls-7{stroke-miterlimit:10;}.cls-1{stroke-width:0.5px;}.cls-2,.cls-3{stroke:#d1d3d4;}.cls-3{fill:#d1d3d4;}.cls-4{fill:#fbb040;}.cls-5{fill:#00aeef;}.cls-6{fill:#ed1c24;}</style></defs><g id="Layer_1" data-name="Layer 1"><line class="cls-1" x1="55.4" y1="22.12" x2="33.61" y2="22.12"/><line class="cls-1" x1="55.4" y1="23.12" x2="33.61" y2="23.12"/><line class="cls-1" x1="55.4" y1="24.12" x2="33.61" y2="24.12"/><line class="cls-1" x1="55.4" y1="25.12" x2="33.61" y2="25.12"/><line class="cls-1" x1="55.4" y1="27.12" x2="33.61" y2="27.12"/><line class="cls-1" x1="55.4" y1="28.12" x2="33.61" y2="28.12"/><line class="cls-1" x1="55.4" y1="29.12" x2="33.61" y2="29.12"/><line class="cls-1" x1="55.4" y1="30.12" x2="33.61" y2="30.12"/><line class="cls-1" x1="55.4" y1="32.12" x2="33.61" y2="32.12"/><line class="cls-1" x1="55.4" y1="33.12" x2="33.61" y2="33.12"/><line class="cls-1" x1="55.4" y1="34.12" x2="33.61" y2="34.12"/><line class="cls-1" x1="55.4" y1="35.12" x2="33.61" y2="35.12"/><rect class="cls-2" x="0.5" y="0.5" width="62.5" height="62.5"/><rect class="cls-3" x="0.5" y="0.5" width="62.5" height="4.51"/><circle class="cls-4" cx="55.06" cy="2.75" r="1"/><circle class="cls-5" cx="58.06" cy="2.75" r="1"/><circle class="cls-6" cx="61.06" cy="2.75" r="1"/><line class="cls-7" x1="29.69" y1="22.25" x2="7.91" y2="22.25"/><line class="cls-7" x1="29.69" y1="24.25" x2="7.91" y2="24.25"/><rect class="cls-1" x="7.58" y="27.75" width="5.53" height="2.73"/><rect class="cls-1" x="15.58" y="27.75" width="5.53" height="2.73"/><rect class="cls-1" x="23.58" y="27.75" width="5.53" height="2.73"/><rect class="cls-1" x="7.58" y="32.75" width="5.53" height="2.73"/><rect class="cls-1" x="15.58" y="32.75" width="5.53" height="2.73"/><rect class="cls-1" x="23.58" y="32.75" width="5.53" height="2.73"/></g></svg>