<svg xmlns="http://www.w3.org/2000/svg" viewBox="0 0 63.5 63.5"><defs><style>.cls-1{fill:#58595b;}.cls-2{fill:#a7a9ac;}.cls-3,.cls-4{fill:none;}.cls-3{stroke:#414042;stroke-linecap:round;stroke-width:0.5px;}.cls-3,.cls-4,.cls-5{stroke-miterlimit:10;}.cls-4,.cls-5{stroke:#d1d3d4;}.cls-5{fill:#d1d3d4;}.cls-6{fill:#fbb040;}.cls-7{fill:#00aeef;}.cls-8{fill:#ed1c24;}</style></defs><g id="Layer_1" data-name="Layer 1"><rect class="cls-1" x="5.23" y="20.82" width="28.56" height="17.45"/><rect class="cls-2" x="16.61" y="29.82" width="20.18" height="12.33"/><line class="cls-3" x1="38.22" y1="22.12" x2="55.89" y2="22.12"/><line class="cls-3" x1="38.22" y1="23.12" x2="55.89" y2="23.12"/><line class="cls-3" x1="38.22" y1="24.12" x2="55.89" y2="24.12"/><line class="cls-3" x1="38.22" y1="25.12" x2="55.89" y2="25.12"/><line class="cls-3" x1="38.22" y1="27.12" x2="55.89" y2="27.12"/><line class="cls-3" x1="38.22" y1="28.12" x2="55.89" y2="28.12"/><line class="cls-3" x1="38.22" y1="29.12" x2="55.89" y2="29.12"/><line class="cls-3" x1="38.22" y1="30.12" x2="55.89" y2="30.12"/><line class="cls-3" x1="38.22" y1="32.12" x2="55.89" y2="32.12"/><line class="cls-3" x1="38.22" y1="33.12" x2="55.89" y2="33.12"/><line class="cls-3" x1="38.22" y1="34.12" x2="55.89" y2="34.12"/><line class="cls-3" x1="38.22" y1="35.12" x2="55.89" y2="35.12"/><rect class="cls-4" x="0.5" y="0.5" width="62.5" height="62.5"/><rect class="cls-5" x="0.5" y="0.5" width="62.5" height="4.51"/><circle class="cls-6" cx="55.06" cy="2.75" r="1"/><circle class="cls-7" cx="58.06" cy="2.75" r="1"/><circle class="cls-8" cx="61.06" cy="2.75" r="1"/></g></svg>