<svg xmlns="http://www.w3.org/2000/svg" viewBox="0 0 63.5 63.5"><defs><style>.cls-1,.cls-2,.cls-3{fill:none;}.cls-1,.cls-2{stroke:#414042;stroke-linecap:round;}.cls-1,.cls-2,.cls-3,.cls-4{stroke-miterlimit:10;}.cls-1{stroke-width:0.5px;}.cls-3,.cls-4{stroke:#d1d3d4;}.cls-4{fill:#d1d3d4;}.cls-5{fill:#fbb040;}.cls-6{fill:#00aeef;}.cls-7{fill:#ed1c24;}</style></defs><g id="Layer_2" data-name="Layer 2"><line class="cls-1" x1="33.22" y1="14.12" x2="50.89" y2="14.12"/><line class="cls-1" x1="33.22" y1="15.12" x2="50.89" y2="15.12"/><line class="cls-1" x1="33.22" y1="16.12" x2="50.89" y2="16.12"/><line class="cls-1" x1="33.22" y1="17.12" x2="50.89" y2="17.12"/><line class="cls-1" x1="33.22" y1="19.12" x2="50.89" y2="19.12"/><line class="cls-1" x1="33.22" y1="20.12" x2="50.89" y2="20.12"/><line class="cls-1" x1="33.22" y1="21.12" x2="50.89" y2="21.12"/><line class="cls-1" x1="33.22" y1="22.12" x2="50.89" y2="22.12"/><line class="cls-1" x1="33.22" y1="24.12" x2="50.89" y2="24.12"/><line class="cls-1" x1="33.22" y1="25.12" x2="50.89" y2="25.12"/><line class="cls-1" x1="33.22" y1="26.12" x2="50.89" y2="26.12"/><line class="cls-1" x1="33.22" y1="27.12" x2="50.89" y2="27.12"/><line class="cls-2" x1="10.22" y1="14.12" x2="27.97" y2="14.12"/><line class="cls-2" x1="10.22" y1="16.12" x2="27.97" y2="16.12"/><line class="cls-2" x1="10.22" y1="18.12" x2="27.97" y2="18.12"/></g><g id="Layer_1" data-name="Layer 1"><rect class="cls-3" x="0.5" y="0.5" width="62.5" height="62.5"/><rect class="cls-4" x="0.5" y="0.5" width="62.5" height="4.51"/><circle class="cls-5" cx="55.06" cy="2.75" r="1"/><circle class="cls-6" cx="58.06" cy="2.75" r="1"/><circle class="cls-7" cx="61.06" cy="2.75" r="1"/></g></svg>