<svg xmlns="http://www.w3.org/2000/svg" xmlns:xlink="http://www.w3.org/1999/xlink" viewBox="0 0 63.5 63.5"><defs><style>.cls-1{fill:#fff;}.cls-10,.cls-15,.cls-2{fill:none;}.cls-3{clip-path:url(#clip-path);}.cls-4{clip-path:url(#clip-path-2);}.cls-5{fill:#010101;}.cls-6{mask:url(#mask);}.cls-7,.cls-9{fill-rule:evenodd;isolation:isolate;}.cls-7{opacity:0.52;fill:url(#linear-gradient);}.cls-8{mask:url(#mask-2-2);}.cls-9{opacity:0.8;fill:url(#linear-gradient-2);}.cls-10,.cls-11{stroke:#d1d3d4;}.cls-10,.cls-11,.cls-15{stroke-miterlimit:10;}.cls-11{fill:#d1d3d4;}.cls-12{fill:#fbb040;}.cls-13{fill:#00aeef;}.cls-14{fill:#ed1c24;}.cls-15{stroke:#414042;stroke-linecap:round;}.cls-16{font-size:10px;fill:#231f20;font-family:MyriadPro-Regular, Myriad Pro;letter-spacing:-0.02em;}.cls-17{letter-spacing:-0.02em;}.cls-18{letter-spacing:0em;}</style><clipPath id="clip-path"><rect class="cls-2" x="-87.1" y="5.1" width="70.7" height="11.19"/></clipPath><clipPath id="clip-path-2"><rect class="cls-2" x="-82.99" y="5.1" width="61.54" height="28.5"/></clipPath><mask id="mask" x="-99.47" y="4.1" width="126.07" height="31.23" maskUnits="userSpaceOnUse"><g id="mask-2"><rect id="path-1" class="cls-1" x="-86.73" y="4.1" width="94.71" height="30.23"/></g></mask><linearGradient id="linear-gradient" x1="-2514.18" y1="83.39" x2="-2514.11" y2="83.39" gradientTransform="matrix(1737, 0, 0, -443.52, 4367038.4, 37013.42)" gradientUnits="userSpaceOnUse"><stop offset="0" stop-color="#373737"/><stop offset="1" stop-color="#4a4a4a"/></linearGradient><mask id="mask-2-2" x="-86.73" y="4.1" width="140.44" height="31.23" maskUnits="userSpaceOnUse"><g id="mask-2-3" data-name="mask-2"><rect id="path-1-2" data-name="path-1" class="cls-1" x="-86.73" y="4.1" width="94.71" height="30.23"/></g></mask><linearGradient id="linear-gradient-2" x1="-2514.27" y1="83.66" x2="-2514.34" y2="83.66" gradientTransform="matrix(1570.5, 0, 0, -389.48, 3948718.04, 32611.25)" gradientUnits="userSpaceOnUse"><stop offset="0" stop-color="#575757"/><stop offset="1" stop-color="#7c7b7b"/></linearGradient></defs><g id="Layer_1" data-name="Layer 1"><g class="cls-3"><g class="cls-4"><g id="Illustrations-Dark-V2"><g id="placeholder-3"><g id="Shape"><rect id="path-1-3" data-name="path-1" class="cls-5" x="-86.73" y="4.1" width="94.71" height="30.23"/></g><g class="cls-6"><path id="Shape-2" data-name="Shape" class="cls-7" d="M-98.47,35.33c23.75,0,36.73-16.09,61.37-16.09S3,35.33,24.59,35.33Z"/></g><g class="cls-8"><path id="Shape-3" data-name="Shape" class="cls-9" d="M-59.37,35.33c21.47,0,33.21-14.13,55.48-14.13S32.37,35.33,51.89,35.33Z"/></g></g></g></g></g><rect class="cls-10" x="0.5" y="0.5" width="62.5" height="62.5"/><rect class="cls-11" x="0.5" y="0.5" width="62.5" height="4.51"/><circle class="cls-12" cx="55.06" cy="2.75" r="1"/><circle class="cls-13" cx="58.06" cy="2.75" r="1"/><circle class="cls-14" cx="61.06" cy="2.75" r="1"/><line class="cls-15" x1="29.69" y1="22.25" x2="7.91" y2="22.25"/><line class="cls-15" x1="29.69" y1="34.25" x2="7.91" y2="34.25"/><line class="cls-15" x1="29.69" y1="37.25" x2="7.91" y2="37.25"/><rect class="cls-15" x="7.91" y="23.96" width="21.77" height="6.13"/><line class="cls-15" x1="55.69" y1="22.25" x2="33.91" y2="22.25"/><line class="cls-15" x1="55.69" y1="34.25" x2="33.91" y2="34.25"/><line class="cls-15" x1="55.69" y1="37.25" x2="33.91" y2="37.25"/><rect class="cls-15" x="33.91" y="23.96" width="21.77" height="6.13"/><text class="cls-16" transform="translate(5.78 55.74)">A<tspan class="cls-17" x="5.97" y="0">CC</tspan><tspan class="cls-18" x="17.15" y="0">ORDION</tspan></text></g></svg>