<svg xmlns="http://www.w3.org/2000/svg" xmlns:xlink="http://www.w3.org/1999/xlink" viewBox="0 0 63.5 63.5"><defs><style>.cls-1{fill:#fff;}.cls-2,.cls-22,.cls-23{fill:none;}.cls-3{clip-path:url(#clip-path);}.cls-4{clip-path:url(#clip-path-2);}.cls-5{fill:#010101;}.cls-6{mask:url(#mask);}.cls-12,.cls-14,.cls-16,.cls-18,.cls-7,.cls-9{fill-rule:evenodd;}.cls-12,.cls-16,.cls-21,.cls-7,.cls-9{isolation:isolate;}.cls-12,.cls-7{opacity:0.52;}.cls-7{fill:url(#linear-gradient);}.cls-8{mask:url(#mask-2-2);}.cls-16,.cls-9{opacity:0.8;}.cls-9{fill:url(#linear-gradient-2);}.cls-10{clip-path:url(#clip-path-3);}.cls-11{mask:url(#mask-3);}.cls-12{fill:url(#linear-gradient-3);}.cls-13{mask:url(#mask-4);}.cls-14{fill:url(#linear-gradient-4);}.cls-15{mask:url(#mask-5);}.cls-16{fill:url(#linear-gradient-5);}.cls-17{mask:url(#mask-6);}.cls-18{fill:url(#linear-gradient-6);}.cls-19{mask:url(#mask-7);}.cls-20{fill:url(#linear-gradient-7);}.cls-21{opacity:0.2;fill:url(#linear-gradient-8);}.cls-22{stroke:#f1f2f2;stroke-width:0.25px;}.cls-22,.cls-23,.cls-24{stroke-miterlimit:10;}.cls-23,.cls-24{stroke:#d1d3d4;}.cls-24{fill:#d1d3d4;}.cls-25{fill:#fbb040;}.cls-26{fill:#00aeef;}.cls-27{fill:#ed1c24;}</style><clipPath id="clip-path"><rect class="cls-2" x="-86.5" y="22.6" width="70.7" height="22.38"/></clipPath><clipPath id="clip-path-2"><rect class="cls-2" x="-82.4" y="22.6" width="61.54" height="56.99"/></clipPath><mask id="mask" x="-98.87" y="20.6" width="126.07" height="62.45" maskUnits="userSpaceOnUse"><g id="mask-2"><rect id="path-1" class="cls-1" x="-86.13" y="20.6" width="94.71" height="60.46"/></g></mask><linearGradient id="linear-gradient" x1="-1345.86" y1="83.3" x2="-1345.78" y2="83.3" gradientTransform="matrix(1737, 0, 0, -443.52, 2337654.26, 37013.42)" gradientUnits="userSpaceOnUse"><stop offset="0" stop-color="#373737"/><stop offset="1" stop-color="#4a4a4a"/></linearGradient><mask id="mask-2-2" x="-86.13" y="20.6" width="140.44" height="62.45" maskUnits="userSpaceOnUse"><g id="mask-2-3" data-name="mask-2"><rect id="path-1-2" data-name="path-1" class="cls-1" x="-86.13" y="20.6" width="94.71" height="60.46"/></g></mask><linearGradient id="linear-gradient-2" x1="-1346.02" y1="83.55" x2="-1346.09" y2="83.55" gradientTransform="matrix(1570.5, 0, 0, -389.48, 2113972.54, 32611.25)" gradientUnits="userSpaceOnUse"><stop offset="0" stop-color="#575757"/><stop offset="1" stop-color="#7c7b7b"/></linearGradient><clipPath id="clip-path-3"><rect class="cls-2" y="13.54" width="63" height="29.79"/></clipPath><mask id="mask-3" x="-17.97" y="9.81" width="126.07" height="62.45" maskUnits="userSpaceOnUse"><g id="mask-2-4" data-name="mask-2"><rect id="path-1-3" data-name="path-1" class="cls-1" x="-5.23" y="9.81" width="94.71" height="60.46"/></g></mask><linearGradient id="linear-gradient-3" x1="-1345.81" y1="83.33" x2="-1345.74" y2="83.33" xlink:href="#linear-gradient"/><mask id="mask-4" x="-60.75" y="9.81" width="150.24" height="62.78" maskUnits="userSpaceOnUse"><g id="mask-2-5" data-name="mask-2"><rect id="path-1-4" data-name="path-1" class="cls-1" x="-5.23" y="9.81" width="94.71" height="60.46"/></g></mask><linearGradient id="linear-gradient-4" x1="-1345.33" y1="83.59" x2="-1345.4" y2="83.59" gradientTransform="matrix(1604.25, 0, 0, -389.48, 2158293.68, 32615.76)" gradientUnits="userSpaceOnUse"><stop offset="0" stop-color="#3a3a39"/><stop offset="1" stop-color="#303030"/></linearGradient><mask id="mask-5" x="-5.23" y="9.81" width="140.44" height="62.45" maskUnits="userSpaceOnUse"><g id="mask-2-6" data-name="mask-2"><rect id="path-1-5" data-name="path-1" class="cls-1" x="-5.23" y="9.81" width="94.71" height="60.46"/></g></mask><linearGradient id="linear-gradient-5" x1="-1345.96" y1="83.58" x2="-1346.04" y2="83.58" xlink:href="#linear-gradient-2"/><mask id="mask-6" x="-60.75" y="9.81" width="150.24" height="69.81" maskUnits="userSpaceOnUse"><g id="mask-2-7" data-name="mask-2"><rect id="path-1-6" data-name="path-1" class="cls-1" x="-5.23" y="9.81" width="94.71" height="60.46"/></g></mask><linearGradient id="linear-gradient-6" x1="-1345" y1="84.07" x2="-1344.93" y2="84.07" gradientTransform="matrix(1224, 0, 0, -351.21, 1646219.96, 29594.36)" gradientUnits="userSpaceOnUse"><stop offset="0" stop-color="#404040"/><stop offset="1" stop-color="#010101"/></linearGradient><mask id="mask-7" x="-5.23" y="9.81" width="94.71" height="60.46" maskUnits="userSpaceOnUse"><g id="mask-2-8" data-name="mask-2"><rect id="path-1-7" data-name="path-1" class="cls-1" x="-5.23" y="9.81" width="94.71" height="60.46"/></g></mask><linearGradient id="linear-gradient-7" x1="-1340.18" y1="83.19" x2="-1340.11" y2="83.19" gradientTransform="matrix(180, 0, 0, -180.11, 241241.01, 15009.53)" gradientUnits="userSpaceOnUse"><stop offset="0" stop-color="#515151"/><stop offset="1" stop-color="#6c6d6d"/></linearGradient><linearGradient id="linear-gradient-8" x1="-1342.5" y1="82.72" x2="-1342.43" y2="82.72" gradientTransform="matrix(292.5, 0, 0, -292.68, 392686.06, 24237.2)" gradientUnits="userSpaceOnUse"><stop offset="0" stop-color="#dcdcdc"/><stop offset="1" stop-color="#e3e0e0"/></linearGradient></defs><g id="Layer_2" data-name="Layer 2"><g class="cls-3"><g class="cls-4"><g id="Illustrations-Dark-V2"><g id="placeholder-3"><g id="Shape"><rect id="path-1-9" data-name="path-1" class="cls-5" x="-86.13" y="20.6" width="94.71" height="60.46"/></g><g class="cls-6"><path id="Shape-2" data-name="Shape" class="cls-7" d="M-97.87,83.06c23.75,0,36.73-32.19,61.37-32.19S3.6,83.06,25.19,83.06Z"/></g><g class="cls-8"><path id="Shape-3" data-name="Shape" class="cls-9" d="M-58.77,83.06c21.47,0,33.21-28.27,55.48-28.27S33,83.06,52.49,83.06Z"/></g></g></g></g></g><g class="cls-10"><g id="Illustrations-Dark-V2-2" data-name="Illustrations-Dark-V2"><g id="placeholder-3-2" data-name="placeholder-3"><g id="Shape-4" data-name="Shape"><rect id="path-1-10" data-name="path-1" class="cls-5" x="-5.23" y="9.81" width="94.71" height="60.46"/></g><g class="cls-11"><path id="Shape-5" data-name="Shape" class="cls-12" d="M-17,72.27c23.75,0,36.73-32.19,61.37-32.19s40.1,32.19,61.69,32.19Z"/></g><g class="cls-13"><path id="Shape-6" data-name="Shape" class="cls-14" d="M-59.83,72.59c21.93,0,33.92-28.26,56.68-28.26s37,28.26,57,28.26Z"/></g><g class="cls-15"><path id="Shape-7" data-name="Shape" class="cls-16" d="M22.13,72.27C43.6,72.27,55.34,44,77.61,44s36.26,28.27,55.78,28.27Z"/></g><g class="cls-17"><path id="Shape-8" data-name="Shape" class="cls-18" d="M-60,79.62c16.74,0,25.88-25.49,43.25-25.49S11.45,79.62,26.67,79.62Z"/></g><g class="cls-19"><ellipse id="Shape-9" data-name="Shape" class="cls-20" cx="14.8" cy="26.3" rx="6.53" ry="6.54"/></g><g class="cls-19"><ellipse id="Shape-10" data-name="Shape" class="cls-21" cx="14.82" cy="26.31" rx="10.61" ry="10.62"/></g></g></g></g><line class="cls-22" x1="14.9" y1="10.81" x2="14.9" y2="48.09"/><line class="cls-22" x1="30.9" y1="10.81" x2="30.9" y2="48.09"/><line class="cls-22" x1="46.9" y1="10.81" x2="46.9" y2="48.09"/></g><g id="Layer_1" data-name="Layer 1"><rect class="cls-23" x="0.5" y="0.5" width="62.5" height="62.5"/><rect class="cls-24" x="0.5" y="0.5" width="62.5" height="4.51"/><circle class="cls-25" cx="55.06" cy="2.75" r="1"/><circle class="cls-26" cx="58.06" cy="2.75" r="1"/><circle class="cls-27" cx="61.06" cy="2.75" r="1"/></g></svg>