<svg xmlns="http://www.w3.org/2000/svg" xmlns:xlink="http://www.w3.org/1999/xlink" viewBox="0 0 63.5 63.5"><defs><style>.cls-1{fill:#fff;}.cls-12,.cls-13,.cls-2{fill:none;}.cls-14,.cls-3{fill:#d1d3d4;}.cls-4{clip-path:url(#clip-path);}.cls-5{clip-path:url(#clip-path-2);}.cls-6{fill:#010101;}.cls-7{mask:url(#mask);}.cls-10,.cls-8{fill-rule:evenodd;isolation:isolate;}.cls-8{opacity:0.52;fill:url(#linear-gradient);}.cls-9{mask:url(#mask-2-2);}.cls-10{opacity:0.8;fill:url(#linear-gradient-2);}.cls-11{fill:#58595b;}.cls-12{stroke:#414042;stroke-linecap:round;stroke-width:0.5px;}.cls-12,.cls-13,.cls-14{stroke-miterlimit:10;}.cls-13,.cls-14{stroke:#d1d3d4;}.cls-15{fill:#fbb040;}.cls-16{fill:#00aeef;}.cls-17{fill:#ed1c24;}</style><clipPath id="clip-path"><rect class="cls-2" x="-83" y="5.3" width="62.05" height="34.15"/></clipPath><clipPath id="clip-path-2"><rect class="cls-2" x="-82.36" y="5.4" width="61.54" height="56.99"/></clipPath><mask id="mask" x="-98.84" y="3.4" width="126.07" height="62.45" maskUnits="userSpaceOnUse"><g id="mask-2"><rect id="path-1" class="cls-1" x="-86.1" y="3.4" width="94.71" height="60.46"/></g></mask><linearGradient id="linear-gradient" x1="-1596.21" y1="83.34" x2="-1596.14" y2="83.34" gradientTransform="matrix(1737, 0, 0, -443.52, 2772522.29, 37013.42)" gradientUnits="userSpaceOnUse"><stop offset="0" stop-color="#373737"/><stop offset="1" stop-color="#4a4a4a"/></linearGradient><mask id="mask-2-2" x="-86.1" y="3.4" width="140.44" height="62.45" maskUnits="userSpaceOnUse"><g id="mask-2-3" data-name="mask-2"><rect id="path-1-2" data-name="path-1" class="cls-1" x="-86.1" y="3.4" width="94.71" height="60.46"/></g></mask><linearGradient id="linear-gradient-2" x1="-1596.36" y1="83.6" x2="-1596.43" y2="83.6" gradientTransform="matrix(1570.5, 0, 0, -389.48, 2507132.29, 32611.25)" gradientUnits="userSpaceOnUse"><stop offset="0" stop-color="#575757"/><stop offset="1" stop-color="#7c7b7b"/></linearGradient></defs><g id="Layer_1" data-name="Layer 1"><rect class="cls-3" x="1.15" y="13.03" width="61.85" height="27.19"/><g class="cls-4"><g class="cls-5"><g id="Illustrations-Dark-V2"><g id="placeholder-3"><g id="Shape"><rect id="path-1-3" data-name="path-1" class="cls-6" x="-86.1" y="3.4" width="94.71" height="60.46"/></g><g class="cls-7"><path id="Shape-2" data-name="Shape" class="cls-8" d="M-97.84,65.85c23.75,0,36.73-32.19,61.37-32.19S3.63,65.85,25.22,65.85Z"/></g><g class="cls-9"><path id="Shape-3" data-name="Shape" class="cls-10" d="M-58.74,65.85c21.47,0,33.21-28.26,55.49-28.26S33,65.85,52.52,65.85Z"/></g></g></g></g></g><rect class="cls-11" x="1.15" y="16.45" width="32.31" height="26.92"/><line class="cls-12" x1="39.72" y1="23.12" x2="57.39" y2="23.12"/><line class="cls-12" x1="39.72" y1="24.12" x2="57.39" y2="24.12"/><line class="cls-12" x1="39.72" y1="25.12" x2="57.39" y2="25.12"/><line class="cls-12" x1="39.72" y1="26.12" x2="57.39" y2="26.12"/><line class="cls-12" x1="39.72" y1="28.12" x2="57.39" y2="28.12"/><line class="cls-12" x1="39.72" y1="29.12" x2="57.39" y2="29.12"/><line class="cls-12" x1="39.72" y1="30.12" x2="57.39" y2="30.12"/><line class="cls-12" x1="39.72" y1="31.12" x2="57.39" y2="31.12"/><line class="cls-12" x1="39.72" y1="33.12" x2="57.39" y2="33.12"/><line class="cls-12" x1="39.72" y1="34.12" x2="57.39" y2="34.12"/><line class="cls-12" x1="39.72" y1="35.12" x2="57.39" y2="35.12"/><line class="cls-12" x1="39.72" y1="36.12" x2="57.39" y2="36.12"/><rect class="cls-13" x="0.5" y="0.5" width="62.5" height="62.5"/><rect class="cls-14" x="0.5" y="0.5" width="62.5" height="4.51"/><circle class="cls-15" cx="55.06" cy="2.75" r="1"/><circle class="cls-16" cx="58.06" cy="2.75" r="1"/><circle class="cls-17" cx="61.06" cy="2.75" r="1"/></g></svg>