<svg xmlns="http://www.w3.org/2000/svg" xmlns:xlink="http://www.w3.org/1999/xlink" viewBox="0 0 63.5 63.5"><defs><style>.cls-1,.cls-7{fill:none;}.cls-2{fill:#58595b;}.cls-3{clip-path:url(#clip-path);}.cls-4{clip-path:url(#clip-path-2);}.cls-5{mask:url(#mask);}.cls-6{fill-rule:evenodd;fill:url(#linear-gradient);}.cls-7,.cls-8{stroke:#d1d3d4;stroke-miterlimit:10;}.cls-8{fill:#d1d3d4;}.cls-9{fill:#fbb040;}.cls-10{fill:#00aeef;}.cls-11{fill:#ed1c24;}</style><clipPath id="clip-path"><rect class="cls-1" x="80.5" y="22.6" width="70.7" height="22.38"/></clipPath><clipPath id="clip-path-2"><rect class="cls-1" x="84.6" y="22.6" width="61.54" height="56.99"/></clipPath><mask id="mask" x="25.35" y="20.6" width="150.24" height="62.78" maskUnits="userSpaceOnUse"/><linearGradient id="linear-gradient" x1="-1178.38" y1="83.56" x2="-1178.45" y2="83.56" gradientTransform="matrix(1604.25, 0, 0, -389.48, 1890550.89, 32615.76)" gradientUnits="userSpaceOnUse"><stop offset="0" stop-color="#3a3a39"/><stop offset="1" stop-color="#303030"/></linearGradient></defs><g id="Layer_2" data-name="Layer 2"><rect class="cls-2" x="3.09" y="23.45" width="16.15" height="13.46" transform="translate(22.33 60.36) rotate(180)"/><rect class="cls-2" x="23.09" y="23.45" width="16.15" height="13.46" transform="translate(62.33 60.36) rotate(180)"/><rect class="cls-2" x="43.09" y="23.45" width="16.15" height="13.46" transform="translate(102.33 60.36) rotate(180)"/><g class="cls-3"><g class="cls-4"><g id="Illustrations-Dark-V2"><g id="placeholder-3"><g class="cls-5"><path id="Shape" class="cls-6" d="M26.27,83.38C48.2,83.38,60.19,55.11,83,55.11s37,28.27,57,28.27Z"/></g></g></g></g></g></g><g id="Layer_1" data-name="Layer 1"><rect class="cls-7" x="0.5" y="0.5" width="62.5" height="62.5"/><rect class="cls-8" x="0.5" y="0.5" width="62.5" height="4.51"/><circle class="cls-9" cx="55.06" cy="2.75" r="1"/><circle class="cls-10" cx="58.06" cy="2.75" r="1"/><circle class="cls-11" cx="61.06" cy="2.75" r="1"/></g></svg>