<svg xmlns="http://www.w3.org/2000/svg" xmlns:xlink="http://www.w3.org/1999/xlink" viewBox="0 0 63.5 63.5"><defs><style>.cls-1,.cls-2{fill:none;}.cls-2,.cls-3{stroke:#d1d3d4;stroke-miterlimit:10;}.cls-3{fill:#d1d3d4;}.cls-4{fill:#fbb040;}.cls-5{fill:#00aeef;}.cls-6{fill:#ed1c24;}.cls-7{font-size:17px;fill:#231f20;font-family:MyriadPro-Regular, Myriad Pro;}.cls-8{clip-path:url(#clip-path);}.cls-9{clip-path:url(#clip-path-2);}.cls-10{mask:url(#mask);}.cls-11,.cls-13{fill-rule:evenodd;}.cls-11{fill:url(#linear-gradient);}.cls-12{mask:url(#mask-2);}.cls-13{fill:url(#linear-gradient-2);}</style><clipPath id="clip-path"><rect class="cls-1" x="79.9" y="5.1" width="70.7" height="11.19"/></clipPath><clipPath id="clip-path-2"><rect class="cls-1" x="84.01" y="5.1" width="61.54" height="28.5"/></clipPath><mask id="mask" x="24.75" y="4.1" width="150.24" height="31.39" maskUnits="userSpaceOnUse"/><linearGradient id="linear-gradient" x1="-2346.65" y1="83.67" x2="-2346.72" y2="83.67" gradientTransform="matrix(1604.25, 0, 0, -389.48, 3764750.43, 32615.76)" gradientUnits="userSpaceOnUse"><stop offset="0" stop-color="#3a3a39"/><stop offset="1" stop-color="#303030"/></linearGradient><mask id="mask-2" x="24.75" y="4.1" width="150.24" height="34.9" maskUnits="userSpaceOnUse"/><linearGradient id="linear-gradient-2" x1="-2346.11" y1="84.17" x2="-2346.04" y2="84.17" gradientTransform="matrix(1224, 0, 0, -351.21, 2871666.08, 29594.36)" gradientUnits="userSpaceOnUse"><stop offset="0" stop-color="#404040"/><stop offset="1" stop-color="#010101"/></linearGradient></defs><g id="Layer_1" data-name="Layer 1"><rect class="cls-2" x="0.5" y="0.5" width="62.5" height="62.5"/><rect class="cls-3" x="0.5" y="0.5" width="62.5" height="4.51"/><circle class="cls-4" cx="55.06" cy="2.75" r="1"/><circle class="cls-5" cx="58.06" cy="2.75" r="1"/><circle class="cls-6" cx="61.06" cy="2.75" r="1"/><text class="cls-7" transform="translate(10.35 36.74)">FORM</text><g class="cls-8"><g class="cls-9"><g id="Illustrations-Dark-V2"><g id="placeholder-3"><g class="cls-10"><path id="Shape" class="cls-11" d="M25.67,35.5c21.93,0,33.92-14.14,56.68-14.14s37,14.14,57,14.14Z"/></g><g class="cls-12"><path id="Shape-2" data-name="Shape" class="cls-13" d="M25.45,39C42.19,39,51.33,26.26,68.7,26.26S97,39,112.17,39Z"/></g></g></g></g></g></g></svg>