<svg xmlns="http://www.w3.org/2000/svg" xmlns:xlink="http://www.w3.org/1999/xlink" viewBox="0 0 63.5 63.5"><defs><style>.cls-1{fill:#fff;}.cls-17,.cls-18,.cls-2{fill:none;}.cls-3{clip-path:url(#clip-path);}.cls-4{clip-path:url(#clip-path-2);}.cls-5{fill:#010101;}.cls-6{mask:url(#mask);}.cls-11,.cls-13,.cls-7,.cls-9{fill-rule:evenodd;}.cls-11,.cls-16,.cls-7{isolation:isolate;}.cls-7{opacity:0.52;fill:url(#linear-gradient);}.cls-8{mask:url(#mask-2-2);}.cls-9{fill:url(#linear-gradient-2);}.cls-10{mask:url(#mask-3);}.cls-11{opacity:0.8;fill:url(#linear-gradient-3);}.cls-12{mask:url(#mask-4);}.cls-13{fill:url(#linear-gradient-4);}.cls-14{mask:url(#mask-5);}.cls-15{fill:url(#linear-gradient-5);}.cls-16{opacity:0.2;fill:url(#linear-gradient-6);}.cls-17{stroke:#f1f2f2;stroke-linecap:round;stroke-width:4px;}.cls-17,.cls-18,.cls-19{stroke-miterlimit:10;}.cls-18,.cls-19{stroke:#d1d3d4;}.cls-19{fill:#d1d3d4;}.cls-20{fill:#fbb040;}.cls-21{fill:#00aeef;}.cls-22{fill:#ed1c24;}</style><clipPath id="clip-path"><rect class="cls-2" x="-3.6" y="5.1" width="70.7" height="11.19"/></clipPath><clipPath id="clip-path-2"><rect class="cls-2" x="0.51" y="5.1" width="61.54" height="28.5"/></clipPath><mask id="mask" x="-15.97" y="4.1" width="126.07" height="31.23" maskUnits="userSpaceOnUse"><g id="mask-2"><rect id="path-1" class="cls-1" x="-3.23" y="4.1" width="94.71" height="30.23"/></g></mask><linearGradient id="linear-gradient" x1="-2430.68" y1="83.39" x2="-2430.61" y2="83.39" gradientTransform="matrix(1737, 0, 0, -443.52, 4222082.39, 37013.42)" gradientUnits="userSpaceOnUse"><stop offset="0" stop-color="#373737"/><stop offset="1" stop-color="#4a4a4a"/></linearGradient><mask id="mask-2-2" x="-58.75" y="4.1" width="150.24" height="31.39" maskUnits="userSpaceOnUse"><g id="mask-2-3" data-name="mask-2"><rect id="path-1-2" data-name="path-1" class="cls-1" x="-3.23" y="4.1" width="94.71" height="30.23"/></g></mask><linearGradient id="linear-gradient-2" x1="-2430.15" y1="83.67" x2="-2430.22" y2="83.67" gradientTransform="matrix(1604.25, 0, 0, -389.48, 3898621.82, 32615.76)" gradientUnits="userSpaceOnUse"><stop offset="0" stop-color="#3a3a39"/><stop offset="1" stop-color="#303030"/></linearGradient><mask id="mask-3" x="-3.23" y="4.1" width="140.44" height="31.23" maskUnits="userSpaceOnUse"><g id="mask-2-4" data-name="mask-2"><rect id="path-1-3" data-name="path-1" class="cls-1" x="-3.23" y="4.1" width="94.71" height="30.23"/></g></mask><linearGradient id="linear-gradient-3" x1="-2430.77" y1="83.66" x2="-2430.84" y2="83.66" gradientTransform="matrix(1570.5, 0, 0, -389.48, 3817664.79, 32611.25)" gradientUnits="userSpaceOnUse"><stop offset="0" stop-color="#575757"/><stop offset="1" stop-color="#7c7b7b"/></linearGradient><mask id="mask-4" x="-58.75" y="4.1" width="150.24" height="34.9" maskUnits="userSpaceOnUse"><g id="mask-2-5" data-name="mask-2"><rect id="path-1-4" data-name="path-1" class="cls-1" x="-3.23" y="4.1" width="94.71" height="30.23"/></g></mask><linearGradient id="linear-gradient-4" x1="-2429.61" y1="84.17" x2="-2429.54" y2="84.17" gradientTransform="matrix(1224, 0, 0, -351.21, 2973786.59, 29594.36)" gradientUnits="userSpaceOnUse"><stop offset="0" stop-color="#404040"/><stop offset="1" stop-color="#010101"/></linearGradient><mask id="mask-5" x="-3.23" y="4.1" width="94.71" height="30.23" maskUnits="userSpaceOnUse"><g id="mask-2-6" data-name="mask-2"><rect id="path-1-5" data-name="path-1" class="cls-1" x="-3.23" y="4.1" width="94.71" height="30.23"/></g></mask><linearGradient id="linear-gradient-5" x1="-2419.64" y1="83.27" x2="-2419.57" y2="83.27" gradientTransform="matrix(180, 0, 0, -180.11, 435545.51, 15009.53)" gradientUnits="userSpaceOnUse"><stop offset="0" stop-color="#515151"/><stop offset="1" stop-color="#6c6d6d"/></linearGradient><linearGradient id="linear-gradient-6" x1="-2424.28" y1="82.77" x2="-2424.21" y2="82.77" gradientTransform="matrix(292.5, 0, 0, -292.68, 709109.31, 24237.2)" gradientUnits="userSpaceOnUse"><stop offset="0" stop-color="#dcdcdc"/><stop offset="1" stop-color="#e3e0e0"/></linearGradient></defs><g id="Layer_1" data-name="Layer 1"><g class="cls-3"><g class="cls-4"><g id="Illustrations-Dark-V2"><g id="placeholder-3"><g id="Shape"><rect id="path-1-7" data-name="path-1" class="cls-5" x="-3.23" y="4.1" width="94.71" height="30.23"/></g><g class="cls-6"><path id="Shape-2" data-name="Shape" class="cls-7" d="M-15,35.33c23.75,0,36.73-16.09,61.37-16.09s40.1,16.09,61.69,16.09Z"/></g><g class="cls-8"><path id="Shape-3" data-name="Shape" class="cls-9" d="M-57.83,35.5c21.93,0,33.92-14.14,56.68-14.14s37,14.14,57,14.14Z"/></g><g class="cls-10"><path id="Shape-4" data-name="Shape" class="cls-11" d="M24.13,35.33c21.47,0,33.21-14.13,55.48-14.13s36.26,14.13,55.78,14.13Z"/></g><g class="cls-12"><path id="Shape-5" data-name="Shape" class="cls-13" d="M-58,39c16.74,0,25.88-12.75,43.25-12.75S13.45,39,28.67,39Z"/></g><g class="cls-14"><ellipse id="Shape-6" data-name="Shape" class="cls-15" cx="16.8" cy="12.35" rx="6.53" ry="3.27"/></g><g class="cls-14"><ellipse id="Shape-7" data-name="Shape" class="cls-16" cx="16.82" cy="12.35" rx="10.61" ry="5.31"/></g></g></g></g></g><line class="cls-17" x1="9.87" y1="11.01" x2="27.33" y2="11.01"/><rect class="cls-18" x="0.39" y="0.5" width="62.5" height="62.5"/><rect class="cls-19" x="0.39" y="0.5" width="62.5" height="4.51"/><circle class="cls-20" cx="54.95" cy="2.75" r="1"/><circle class="cls-21" cx="57.95" cy="2.75" r="1"/><circle class="cls-22" cx="60.95" cy="2.75" r="1"/></g></svg>