<svg xmlns="http://www.w3.org/2000/svg" xmlns:xlink="http://www.w3.org/1999/xlink" viewBox="0 0 63.5 63.5"><defs><style>.cls-1{fill:#fff;}.cls-2,.cls-22,.cls-23{fill:none;}.cls-3{clip-path:url(#clip-path);}.cls-4{fill:#010101;}.cls-5{mask:url(#mask);}.cls-12,.cls-14,.cls-16,.cls-18,.cls-6,.cls-8{fill-rule:evenodd;}.cls-12,.cls-16,.cls-21,.cls-6,.cls-8{isolation:isolate;}.cls-12,.cls-6{opacity:0.52;}.cls-6{fill:url(#linear-gradient);}.cls-7{mask:url(#mask-2-2);}.cls-16,.cls-8{opacity:0.8;}.cls-8{fill:url(#linear-gradient-2);}.cls-9{clip-path:url(#clip-path-2);}.cls-10{clip-path:url(#clip-path-3);}.cls-11{mask:url(#mask-3);}.cls-12{fill:url(#linear-gradient-3);}.cls-13{mask:url(#mask-4);}.cls-14{fill:url(#linear-gradient-4);}.cls-15{mask:url(#mask-5);}.cls-16{fill:url(#linear-gradient-5);}.cls-17{mask:url(#mask-6);}.cls-18{fill:url(#linear-gradient-6);}.cls-19{mask:url(#mask-7);}.cls-20{fill:url(#linear-gradient-7);}.cls-21{opacity:0.2;fill:url(#linear-gradient-8);}.cls-22{stroke:#f1f2f2;stroke-linecap:round;stroke-width:4px;}.cls-22,.cls-23,.cls-24{stroke-miterlimit:10;}.cls-23,.cls-24{stroke:#d1d3d4;}.cls-24{fill:#d1d3d4;}.cls-25{fill:#fbb040;}.cls-26{fill:#00aeef;}.cls-27{fill:#ed1c24;}</style><clipPath id="clip-path"><rect class="cls-2" x="-82.62" y="5.1" width="61.54" height="56.99"/></clipPath><mask id="mask" x="-99.09" y="3.1" width="126.07" height="62.45" maskUnits="userSpaceOnUse"><g id="mask-2"><rect id="path-1" class="cls-1" x="-86.36" y="3.1" width="94.71" height="60.46"/></g></mask><linearGradient id="linear-gradient" x1="-177.53" y1="83.34" x2="-177.46" y2="83.34" gradientTransform="matrix(1737, 0, 0, -443.52, 308270.12, 37013.42)" gradientUnits="userSpaceOnUse"><stop offset="0" stop-color="#373737"/><stop offset="1" stop-color="#4a4a4a"/></linearGradient><mask id="mask-2-2" x="-86.36" y="3.1" width="140.44" height="62.45" maskUnits="userSpaceOnUse"><g id="mask-2-3" data-name="mask-2"><rect id="path-1-2" data-name="path-1" class="cls-1" x="-86.36" y="3.1" width="94.71" height="60.46"/></g></mask><linearGradient id="linear-gradient-2" x1="-177.76" y1="83.6" x2="-177.83" y2="83.6" gradientTransform="matrix(1570.5, 0, 0, -389.48, 279227.04, 32611.25)" gradientUnits="userSpaceOnUse"><stop offset="0" stop-color="#575757"/><stop offset="1" stop-color="#7c7b7b"/></linearGradient><clipPath id="clip-path-2"><rect class="cls-2" x="-3.49" y="5.1" width="70.7" height="22.38"/></clipPath><clipPath id="clip-path-3"><rect class="cls-2" x="0.62" y="5.1" width="61.54" height="56.99"/></clipPath><mask id="mask-3" x="-15.85" y="3.1" width="126.07" height="62.45" maskUnits="userSpaceOnUse"><g id="mask-2-4" data-name="mask-2"><rect id="path-1-3" data-name="path-1" class="cls-1" x="-3.12" y="3.1" width="94.71" height="60.46"/></g></mask><linearGradient id="linear-gradient-3" x1="-177.48" y1="83.34" x2="-177.41" y2="83.34" xlink:href="#linear-gradient"/><mask id="mask-4" x="-58.64" y="3.1" width="150.24" height="62.78" maskUnits="userSpaceOnUse"><g id="mask-2-5" data-name="mask-2"><rect id="path-1-4" data-name="path-1" class="cls-1" x="-3.12" y="3.1" width="94.71" height="60.46"/></g></mask><linearGradient id="linear-gradient-4" x1="-177.05" y1="83.61" x2="-177.12" y2="83.61" gradientTransform="matrix(1604.25, 0, 0, -389.48, 284094.15, 32615.76)" gradientUnits="userSpaceOnUse"><stop offset="0" stop-color="#3a3a39"/><stop offset="1" stop-color="#303030"/></linearGradient><mask id="mask-5" x="-3.12" y="3.1" width="140.44" height="62.45" maskUnits="userSpaceOnUse"><g id="mask-2-6" data-name="mask-2"><rect id="path-1-5" data-name="path-1" class="cls-1" x="-3.12" y="3.1" width="94.71" height="60.46"/></g></mask><linearGradient id="linear-gradient-5" x1="-177.71" y1="83.6" x2="-177.78" y2="83.6" xlink:href="#linear-gradient-2"/><mask id="mask-6" x="-58.64" y="3.1" width="150.24" height="69.81" maskUnits="userSpaceOnUse"><g id="mask-2-7" data-name="mask-2"><rect id="path-1-6" data-name="path-1" class="cls-1" x="-3.12" y="3.1" width="94.71" height="60.46"/></g></mask><linearGradient id="linear-gradient-6" x1="-176.95" y1="84.09" x2="-176.88" y2="84.09" gradientTransform="matrix(1224, 0, 0, -351.21, 216532.81, 29594.36)" gradientUnits="userSpaceOnUse"><stop offset="0" stop-color="#404040"/><stop offset="1" stop-color="#010101"/></linearGradient><mask id="mask-7" x="-3.12" y="3.1" width="94.71" height="60.46" maskUnits="userSpaceOnUse"><g id="mask-2-8" data-name="mask-2"><rect id="path-1-7" data-name="path-1" class="cls-1" x="-3.12" y="3.1" width="94.71" height="60.46"/></g></mask><linearGradient id="linear-gradient-7" x1="-177.66" y1="83.23" x2="-177.59" y2="83.23" gradientTransform="matrix(180, 0, 0, -180.11, 31990.01, 15009.53)" gradientUnits="userSpaceOnUse"><stop offset="0" stop-color="#515151"/><stop offset="1" stop-color="#6c6d6d"/></linearGradient><linearGradient id="linear-gradient-8" x1="-177.49" y1="82.75" x2="-177.42" y2="82.75" gradientTransform="matrix(292.5, 0, 0, -292.68, 51922.56, 24237.2)" gradientUnits="userSpaceOnUse"><stop offset="0" stop-color="#dcdcdc"/><stop offset="1" stop-color="#e3e0e0"/></linearGradient></defs><g id="Layer_2" data-name="Layer 2"><g class="cls-3"><g id="Illustrations-Dark-V2"><g id="placeholder-3"><g id="Shape"><rect id="path-1-9" data-name="path-1" class="cls-4" x="-86.36" y="3.1" width="94.71" height="60.46"/></g><g class="cls-5"><path id="Shape-2" data-name="Shape" class="cls-6" d="M-98.09,65.56c23.74,0,36.72-32.19,61.36-32.19S3.37,65.56,25,65.56Z"/></g><g class="cls-7"><path id="Shape-3" data-name="Shape" class="cls-8" d="M-59,65.56c21.47,0,33.21-28.27,55.49-28.27S32.74,65.56,52.26,65.56Z"/></g></g></g></g><g class="cls-9"><g class="cls-10"><g id="Illustrations-Dark-V2-2" data-name="Illustrations-Dark-V2"><g id="placeholder-3-2" data-name="placeholder-3"><g id="Shape-4" data-name="Shape"><rect id="path-1-10" data-name="path-1" class="cls-4" x="-3.12" y="3.1" width="94.71" height="60.46"/></g><g class="cls-11"><path id="Shape-5" data-name="Shape" class="cls-12" d="M-14.85,65.56c23.74,0,36.72-32.19,61.36-32.19s40.1,32.19,61.69,32.19Z"/></g><g class="cls-13"><path id="Shape-6" data-name="Shape" class="cls-14" d="M-57.72,65.89C-35.78,65.89-23.8,37.62-1,37.62s37,28.27,57,28.27Z"/></g><g class="cls-15"><path id="Shape-7" data-name="Shape" class="cls-16" d="M24.24,65.56c21.47,0,33.21-28.27,55.49-28.27S116,65.56,135.5,65.56Z"/></g><g class="cls-17"><path id="Shape-8" data-name="Shape" class="cls-18" d="M-57.93,72.91c16.73,0,25.88-25.49,43.24-25.49S13.56,72.91,28.78,72.91Z"/></g><g class="cls-19"><ellipse id="Shape-9" data-name="Shape" class="cls-20" cx="16.92" cy="19.59" rx="6.53" ry="6.54"/></g><g class="cls-19"><ellipse id="Shape-10" data-name="Shape" class="cls-21" cx="16.93" cy="19.6" rx="10.61" ry="10.62"/></g></g></g></g></g><line class="cls-22" x1="9.99" y1="17.01" x2="27.44" y2="17.01"/></g><g id="Layer_1" data-name="Layer 1"><rect class="cls-23" x="0.5" y="0.5" width="62.5" height="62.5"/><rect class="cls-24" x="0.5" y="0.5" width="62.5" height="4.51"/><circle class="cls-25" cx="55.06" cy="2.75" r="1"/><circle class="cls-26" cx="58.06" cy="2.75" r="1"/><circle class="cls-27" cx="61.06" cy="2.75" r="1"/></g></svg>