<svg xmlns="http://www.w3.org/2000/svg" xmlns:xlink="http://www.w3.org/1999/xlink" viewBox="0 0 63.5 63.5"><defs><style>.cls-1{fill:#fff;}.cls-2,.cls-22,.cls-23,.cls-24,.cls-25,.cls-32{fill:none;}.cls-3{clip-path:url(#clip-path);}.cls-4{clip-path:url(#clip-path-2);}.cls-5{fill:#010101;}.cls-6{mask:url(#mask);}.cls-12,.cls-14,.cls-16,.cls-18,.cls-29,.cls-31,.cls-7,.cls-9{fill-rule:evenodd;}.cls-12,.cls-16,.cls-21,.cls-7,.cls-9{isolation:isolate;}.cls-12,.cls-7{opacity:0.52;}.cls-7{fill:url(#linear-gradient);}.cls-8{mask:url(#mask-2-2);}.cls-16,.cls-9{opacity:0.8;}.cls-9{fill:url(#linear-gradient-2);}.cls-10{clip-path:url(#clip-path-3);}.cls-11{mask:url(#mask-3);}.cls-12{fill:url(#linear-gradient-3);}.cls-13{mask:url(#mask-4);}.cls-14{fill:url(#linear-gradient-4);}.cls-15{mask:url(#mask-5);}.cls-16{fill:url(#linear-gradient-5);}.cls-17{mask:url(#mask-6);}.cls-18{fill:url(#linear-gradient-6);}.cls-19{mask:url(#mask-7);}.cls-20{fill:url(#linear-gradient-7);}.cls-21{opacity:0.2;fill:url(#linear-gradient-8);}.cls-22,.cls-23,.cls-24,.cls-25{stroke:#f1f2f2;stroke-linecap:round;}.cls-22,.cls-23,.cls-32,.cls-33{stroke-miterlimit:10;}.cls-22{stroke-width:4px;}.cls-23{stroke-width:2px;}.cls-24,.cls-25{stroke-linejoin:round;}.cls-25{stroke-dasharray:1.01 2.02;}.cls-26{clip-path:url(#clip-path-4);}.cls-27{clip-path:url(#clip-path-5);}.cls-28{mask:url(#mask-9);}.cls-29{fill:url(#linear-gradient-9);}.cls-30{mask:url(#mask-10);}.cls-31{fill:url(#linear-gradient-10);}.cls-32,.cls-33{stroke:#d1d3d4;}.cls-33{fill:#d1d3d4;}.cls-34{fill:#fbb040;}.cls-35{fill:#00aeef;}.cls-36{fill:#ed1c24;}</style><clipPath id="clip-path"><rect class="cls-2" x="-83" y="5.01" width="62.05" height="34.15"/></clipPath><clipPath id="clip-path-2"><rect class="cls-2" x="-82.36" y="5.1" width="61.54" height="56.99"/></clipPath><mask id="mask" x="-98.84" y="3.1" width="126.07" height="62.45" maskUnits="userSpaceOnUse"><g id="mask-2"><rect id="path-1" class="cls-1" x="-86.1" y="3.1" width="94.71" height="60.46"/></g></mask><linearGradient id="linear-gradient" x1="-94.08" y1="83.34" x2="-94.01" y2="83.34" gradientTransform="matrix(1737, 0, 0, -443.52, 163314.11, 37013.42)" gradientUnits="userSpaceOnUse"><stop offset="0" stop-color="#373737"/><stop offset="1" stop-color="#4a4a4a"/></linearGradient><mask id="mask-2-2" x="-86.1" y="3.1" width="140.44" height="62.45" maskUnits="userSpaceOnUse"><g id="mask-2-3" data-name="mask-2"><rect id="path-1-2" data-name="path-1" class="cls-1" x="-86.1" y="3.1" width="94.71" height="60.46"/></g></mask><linearGradient id="linear-gradient-2" x1="-94.31" y1="83.6" x2="-94.39" y2="83.6" gradientTransform="matrix(1570.5, 0, 0, -389.48, 148173.79, 32611.25)" gradientUnits="userSpaceOnUse"><stop offset="0" stop-color="#575757"/><stop offset="1" stop-color="#7c7b7b"/></linearGradient><clipPath id="clip-path-3"><rect class="cls-2" x="0.88" y="5.1" width="61.54" height="56.99"/></clipPath><mask id="mask-3" x="-15.59" y="3.1" width="126.07" height="62.45" maskUnits="userSpaceOnUse"><g id="mask-2-4" data-name="mask-2"><rect id="path-1-3" data-name="path-1" class="cls-1" x="-2.86" y="3.1" width="94.71" height="60.46"/></g></mask><linearGradient id="linear-gradient-3" x1="-94.03" y1="83.34" x2="-93.96" y2="83.34" xlink:href="#linear-gradient"/><mask id="mask-4" x="-58.38" y="3.1" width="150.24" height="62.78" maskUnits="userSpaceOnUse"><g id="mask-2-5" data-name="mask-2"><rect id="path-1-4" data-name="path-1" class="cls-1" x="-2.86" y="3.1" width="94.71" height="60.46"/></g></mask><linearGradient id="linear-gradient-4" x1="-93.6" y1="83.61" x2="-93.68" y2="83.61" gradientTransform="matrix(1604.25, 0, 0, -389.48, 150222.75, 32615.76)" gradientUnits="userSpaceOnUse"><stop offset="0" stop-color="#3a3a39"/><stop offset="1" stop-color="#303030"/></linearGradient><mask id="mask-5" x="-2.86" y="3.1" width="140.44" height="62.45" maskUnits="userSpaceOnUse"><g id="mask-2-6" data-name="mask-2"><rect id="path-1-5" data-name="path-1" class="cls-1" x="-2.86" y="3.1" width="94.71" height="60.46"/></g></mask><linearGradient id="linear-gradient-5" x1="-94.26" y1="83.6" x2="-94.33" y2="83.6" xlink:href="#linear-gradient-2"/><mask id="mask-6" x="-58.38" y="3.1" width="150.24" height="69.81" maskUnits="userSpaceOnUse"><g id="mask-2-7" data-name="mask-2"><rect id="path-1-6" data-name="path-1" class="cls-1" x="-2.86" y="3.1" width="94.71" height="60.46"/></g></mask><linearGradient id="linear-gradient-6" x1="-93.52" y1="84.09" x2="-93.45" y2="84.09" gradientTransform="matrix(1224, 0, 0, -351.21, 114412.3, 29594.36)" gradientUnits="userSpaceOnUse"><stop offset="0" stop-color="#404040"/><stop offset="1" stop-color="#010101"/></linearGradient><mask id="mask-7" x="-2.86" y="3.1" width="94.71" height="60.46" maskUnits="userSpaceOnUse"><g id="mask-2-8" data-name="mask-2"><rect id="path-1-7" data-name="path-1" class="cls-1" x="-2.86" y="3.1" width="94.71" height="60.46"/></g></mask><linearGradient id="linear-gradient-7" x1="-94.63" y1="83.23" x2="-94.55" y2="83.23" gradientTransform="matrix(180, 0, 0, -180.11, 17043.51, 15009.53)" gradientUnits="userSpaceOnUse"><stop offset="0" stop-color="#515151"/><stop offset="1" stop-color="#6c6d6d"/></linearGradient><linearGradient id="linear-gradient-8" x1="-94.28" y1="82.75" x2="-94.2" y2="82.75" gradientTransform="matrix(292.5, 0, 0, -292.68, 27582.31, 24237.2)" gradientUnits="userSpaceOnUse"><stop offset="0" stop-color="#dcdcdc"/><stop offset="1" stop-color="#e3e0e0"/></linearGradient><clipPath id="clip-path-4"><rect class="cls-2" x="80.01" y="5.1" width="70.7" height="22.38"/></clipPath><clipPath id="clip-path-5"><rect class="cls-2" x="84.12" y="5.1" width="61.54" height="56.99"/></clipPath><mask id="mask-9" x="24.86" y="3.1" width="150.24" height="62.78" maskUnits="userSpaceOnUse"/><linearGradient id="linear-gradient-9" x1="-93.55" y1="83.61" x2="-93.62" y2="83.61" xlink:href="#linear-gradient-4"/><mask id="mask-10" x="24.86" y="3.1" width="150.24" height="69.81" maskUnits="userSpaceOnUse"/><linearGradient id="linear-gradient-10" x1="-93.45" y1="84.09" x2="-93.38" y2="84.09" xlink:href="#linear-gradient-6"/></defs><g id="Layer_2" data-name="Layer 2"><g class="cls-3"><g class="cls-4"><g id="Illustrations-Dark-V2"><g id="placeholder-3"><g id="Shape"><rect id="path-1-9" data-name="path-1" class="cls-5" x="-86.1" y="3.1" width="94.71" height="60.46"/></g><g class="cls-6"><path id="Shape-2" data-name="Shape" class="cls-7" d="M-97.84,65.56c23.75,0,36.73-32.19,61.37-32.19S3.63,65.56,25.22,65.56Z"/></g><g class="cls-8"><path id="Shape-3" data-name="Shape" class="cls-9" d="M-58.74,65.56c21.47,0,33.21-28.27,55.49-28.27S33,65.56,52.52,65.56Z"/></g></g></g></g></g><g class="cls-10"><g id="Illustrations-Dark-V2-2" data-name="Illustrations-Dark-V2"><g id="placeholder-3-2" data-name="placeholder-3"><g id="Shape-4" data-name="Shape"><rect id="path-1-10" data-name="path-1" class="cls-5" x="-2.86" y="3.1" width="94.71" height="60.46"/></g><g class="cls-11"><path id="Shape-5" data-name="Shape" class="cls-12" d="M-14.59,65.56c23.74,0,36.72-32.19,61.36-32.19s40.1,32.19,61.69,32.19Z"/></g><g class="cls-13"><path id="Shape-6" data-name="Shape" class="cls-14" d="M-57.46,65.89c21.94,0,33.92-28.27,56.68-28.27s37,28.27,57,28.27Z"/></g><g class="cls-15"><path id="Shape-7" data-name="Shape" class="cls-16" d="M24.5,65.56C46,65.56,57.71,37.29,80,37.29s36.25,28.27,55.77,28.27Z"/></g><g class="cls-17"><path id="Shape-8" data-name="Shape" class="cls-18" d="M-57.67,72.91c16.73,0,25.88-25.49,43.24-25.49S13.82,72.91,29,72.91Z"/></g><g class="cls-19"><ellipse id="Shape-9" data-name="Shape" class="cls-20" cx="17.17" cy="19.59" rx="6.53" ry="6.54"/></g><g class="cls-19"><ellipse id="Shape-10" data-name="Shape" class="cls-21" cx="17.19" cy="19.6" rx="10.61" ry="10.62"/></g></g></g></g><line class="cls-22" x1="22.93" y1="30.42" x2="40.39" y2="30.42"/><line class="cls-23" x1="12.07" y1="36.49" x2="51.24" y2="36.49"/><line class="cls-23" x1="12.07" y1="40.49" x2="51.24" y2="40.49"/><line class="cls-23" x1="12.07" y1="44.49" x2="51.24" y2="44.49"/><line class="cls-24" x1="59.06" y1="26.4" x2="59.06" y2="27.4"/><line class="cls-25" x1="59.06" y1="29.43" x2="59.06" y2="31.45"/><line class="cls-24" x1="59.06" y1="32.46" x2="59.06" y2="33.46"/><line class="cls-24" x1="6.06" y1="26.4" x2="6.06" y2="27.4"/><line class="cls-25" x1="6.06" y1="29.43" x2="6.06" y2="31.45"/><line class="cls-24" x1="6.06" y1="32.46" x2="6.06" y2="33.46"/><g class="cls-26"><g class="cls-27"><g id="Illustrations-Dark-V2-3" data-name="Illustrations-Dark-V2"><g id="placeholder-3-3" data-name="placeholder-3"><g class="cls-28"><path id="Shape-11" data-name="Shape" class="cls-29" d="M25.78,65.89c21.94,0,33.92-28.27,56.68-28.27s37,28.27,57,28.27Z"/></g><g class="cls-30"><path id="Shape-12" data-name="Shape" class="cls-31" d="M25.57,72.91c16.73,0,25.88-25.49,43.24-25.49s28.25,25.49,43.47,25.49Z"/></g></g></g></g></g></g><g id="Layer_1" data-name="Layer 1"><rect class="cls-32" x="0.5" y="0.5" width="62.5" height="62.5"/><rect class="cls-33" x="0.5" y="0.5" width="62.5" height="4.51"/><circle class="cls-34" cx="55.06" cy="2.75" r="1"/><circle class="cls-35" cx="58.06" cy="2.75" r="1"/><circle class="cls-36" cx="61.06" cy="2.75" r="1"/></g></svg>