<svg xmlns="http://www.w3.org/2000/svg" xmlns:xlink="http://www.w3.org/1999/xlink" viewBox="0 0 63.5 63.5"><defs><style>.cls-1,.cls-26{fill:#fff;}.cls-2,.cls-21{fill:none;}.cls-3{clip-path:url(#clip-path);}.cls-4{fill:#010101;}.cls-5{mask:url(#mask);}.cls-11,.cls-13,.cls-15,.cls-17,.cls-30,.cls-32,.cls-6,.cls-8{fill-rule:evenodd;}.cls-11,.cls-15,.cls-20,.cls-6,.cls-8{isolation:isolate;}.cls-11,.cls-6{opacity:0.52;}.cls-6{fill:url(#linear-gradient);}.cls-7{mask:url(#mask-2-2);}.cls-15,.cls-8{opacity:0.8;}.cls-8{fill:url(#linear-gradient-2);}.cls-9{clip-path:url(#clip-path-2);}.cls-10{mask:url(#mask-3);}.cls-11{fill:url(#linear-gradient-3);}.cls-12{mask:url(#mask-4);}.cls-13{fill:url(#linear-gradient-4);}.cls-14{mask:url(#mask-5);}.cls-15{fill:url(#linear-gradient-5);}.cls-16{mask:url(#mask-6);}.cls-17{fill:url(#linear-gradient-6);}.cls-18{mask:url(#mask-7);}.cls-19{fill:url(#linear-gradient-7);}.cls-20{opacity:0.2;fill:url(#linear-gradient-8);}.cls-21,.cls-22{stroke:#d1d3d4;stroke-miterlimit:10;}.cls-22{fill:#d1d3d4;}.cls-23{fill:#fbb040;}.cls-24{fill:#00aeef;}.cls-25{fill:#ed1c24;}.cls-26{font-size:17px;font-family:Calibri-Bold, Calibri;font-weight:700;}.cls-27{clip-path:url(#clip-path-3);}.cls-28{clip-path:url(#clip-path-4);}.cls-29{mask:url(#mask-9);}.cls-30{fill:url(#linear-gradient-9);}.cls-31{mask:url(#mask-10);}.cls-32{fill:url(#linear-gradient-10);}</style><clipPath id="clip-path"><rect class="cls-2" x="-83.5" y="13.54" width="63" height="29.79"/></clipPath><mask id="mask" x="-101.47" y="9.81" width="126.07" height="62.45" maskUnits="userSpaceOnUse"><g id="mask-2"><rect id="path-1" class="cls-1" x="-88.73" y="9.81" width="94.71" height="60.46"/></g></mask><linearGradient id="linear-gradient" x1="-1429.31" y1="83.33" x2="-1429.24" y2="83.33" gradientTransform="matrix(1737, 0, 0, -443.52, 2482610.27, 37013.42)" gradientUnits="userSpaceOnUse"><stop offset="0" stop-color="#373737"/><stop offset="1" stop-color="#4a4a4a"/></linearGradient><mask id="mask-2-2" x="-88.73" y="9.81" width="140.44" height="62.45" maskUnits="userSpaceOnUse"><g id="mask-2-3" data-name="mask-2"><rect id="path-1-2" data-name="path-1" class="cls-1" x="-88.73" y="9.81" width="94.71" height="60.46"/></g></mask><linearGradient id="linear-gradient-2" x1="-1429.46" y1="83.58" x2="-1429.54" y2="83.58" gradientTransform="matrix(1570.5, 0, 0, -389.48, 2245025.79, 32611.25)" gradientUnits="userSpaceOnUse"><stop offset="0" stop-color="#575757"/><stop offset="1" stop-color="#7c7b7b"/></linearGradient><clipPath id="clip-path-2"><rect class="cls-2" x="1.15" y="5.4" width="61.54" height="56.99"/></clipPath><mask id="mask-3" x="-15.32" y="3.4" width="126.07" height="62.45" maskUnits="userSpaceOnUse"><g id="mask-2-4" data-name="mask-2"><rect id="path-1-3" data-name="path-1" class="cls-1" x="-2.58" y="3.4" width="94.71" height="60.46"/></g></mask><linearGradient id="linear-gradient-3" x1="-1429.26" y1="83.34" x2="-1429.19" y2="83.34" xlink:href="#linear-gradient"/><mask id="mask-4" x="-58.1" y="3.4" width="150.24" height="62.78" maskUnits="userSpaceOnUse"><g id="mask-2-5" data-name="mask-2"><rect id="path-1-4" data-name="path-1" class="cls-1" x="-2.58" y="3.4" width="94.71" height="60.46"/></g></mask><linearGradient id="linear-gradient-4" x1="-1428.77" y1="83.61" x2="-1428.84" y2="83.61" gradientTransform="matrix(1604.25, 0, 0, -389.48, 2292165.08, 32615.76)" gradientUnits="userSpaceOnUse"><stop offset="0" stop-color="#3a3a39"/><stop offset="1" stop-color="#303030"/></linearGradient><mask id="mask-5" x="-2.58" y="3.4" width="140.44" height="62.45" maskUnits="userSpaceOnUse"><g id="mask-2-6" data-name="mask-2"><rect id="path-1-5" data-name="path-1" class="cls-1" x="-2.58" y="3.4" width="94.71" height="60.46"/></g></mask><linearGradient id="linear-gradient-5" x1="-1429.41" y1="83.6" x2="-1429.48" y2="83.6" xlink:href="#linear-gradient-2"/><mask id="mask-6" x="-58.1" y="3.4" width="150.24" height="69.81" maskUnits="userSpaceOnUse"><g id="mask-2-7" data-name="mask-2"><rect id="path-1-6" data-name="path-1" class="cls-1" x="-2.58" y="3.4" width="94.71" height="60.46"/></g></mask><linearGradient id="linear-gradient-6" x1="-1428.43" y1="84.09" x2="-1428.36" y2="84.09" gradientTransform="matrix(1224, 0, 0, -351.21, 1748340.47, 29594.36)" gradientUnits="userSpaceOnUse"><stop offset="0" stop-color="#404040"/><stop offset="1" stop-color="#010101"/></linearGradient><mask id="mask-7" x="-2.58" y="3.4" width="94.71" height="60.46" maskUnits="userSpaceOnUse"><g id="mask-2-8" data-name="mask-2"><rect id="path-1-7" data-name="path-1" class="cls-1" x="-2.58" y="3.4" width="94.71" height="60.46"/></g></mask><linearGradient id="linear-gradient-7" x1="-1423.2" y1="83.23" x2="-1423.13" y2="83.23" gradientTransform="matrix(180, 0, 0, -180.11, 256187.51, 15009.53)" gradientUnits="userSpaceOnUse"><stop offset="0" stop-color="#515151"/><stop offset="1" stop-color="#6c6d6d"/></linearGradient><linearGradient id="linear-gradient-8" x1="-1425.71" y1="82.74" x2="-1425.63" y2="82.74" gradientTransform="matrix(292.5, 0, 0, -292.68, 417026.31, 24237.2)" gradientUnits="userSpaceOnUse"><stop offset="0" stop-color="#dcdcdc"/><stop offset="1" stop-color="#e3e0e0"/></linearGradient><clipPath id="clip-path-3"><rect class="cls-2" x="84" y="5.3" width="62.05" height="34.15"/></clipPath><clipPath id="clip-path-4"><rect class="cls-2" x="84.64" y="5.4" width="61.54" height="56.99"/></clipPath><mask id="mask-9" x="25.38" y="3.4" width="150.24" height="62.78" maskUnits="userSpaceOnUse"/><linearGradient id="linear-gradient-9" x1="-1428.72" y1="83.61" x2="-1428.79" y2="83.61" xlink:href="#linear-gradient-4"/><mask id="mask-10" x="25.38" y="3.4" width="150.24" height="69.81" maskUnits="userSpaceOnUse"/><linearGradient id="linear-gradient-10" x1="-1428.36" y1="84.09" x2="-1428.29" y2="84.09" xlink:href="#linear-gradient-6"/></defs><g id="Layer_2" data-name="Layer 2"><g class="cls-3"><g id="Illustrations-Dark-V2"><g id="placeholder-3"><g id="Shape"><rect id="path-1-9" data-name="path-1" class="cls-4" x="-88.73" y="9.81" width="94.71" height="60.46"/></g><g class="cls-5"><path id="Shape-2" data-name="Shape" class="cls-6" d="M-100.47,72.27c23.75,0,36.73-32.19,61.37-32.19S1,72.27,22.59,72.27Z"/></g><g class="cls-7"><path id="Shape-3" data-name="Shape" class="cls-8" d="M-61.37,72.27C-39.9,72.27-28.16,44-5.89,44S30.37,72.27,49.89,72.27Z"/></g></g></g></g></g><g id="Layer_1" data-name="Layer 1"><g class="cls-9"><g id="Illustrations-Dark-V2-2" data-name="Illustrations-Dark-V2"><g id="placeholder-3-2" data-name="placeholder-3"><g id="Shape-4" data-name="Shape"><rect id="path-1-10" data-name="path-1" class="cls-4" x="-2.58" y="3.4" width="94.71" height="60.46"/></g><g class="cls-10"><path id="Shape-5" data-name="Shape" class="cls-11" d="M-14.32,65.85c23.75,0,36.73-32.19,61.37-32.19s40.09,32.19,61.69,32.19Z"/></g><g class="cls-12"><path id="Shape-6" data-name="Shape" class="cls-13" d="M-57.18,66.18c21.93,0,33.92-28.27,56.68-28.27s37,28.27,57,28.27Z"/></g><g class="cls-14"><path id="Shape-7" data-name="Shape" class="cls-15" d="M24.78,65.85c21.47,0,33.2-28.26,55.48-28.26S116.51,65.85,136,65.85Z"/></g><g class="cls-16"><path id="Shape-8" data-name="Shape" class="cls-17" d="M-57.4,73.21c16.73,0,25.88-25.49,43.24-25.49S14.1,73.21,29.31,73.21Z"/></g><g class="cls-18"><ellipse id="Shape-9" data-name="Shape" class="cls-19" cx="17.45" cy="19.88" rx="6.53" ry="6.54"/></g><g class="cls-18"><ellipse id="Shape-10" data-name="Shape" class="cls-20" cx="17.47" cy="19.9" rx="10.61" ry="10.62"/></g></g></g></g><rect class="cls-21" x="0.77" y="0.79" width="62.5" height="62.5"/><rect class="cls-22" x="0.77" y="0.79" width="62.5" height="4.51"/><circle class="cls-23" cx="55.34" cy="3.05" r="1"/><circle class="cls-24" cx="58.34" cy="3.05" r="1"/><circle class="cls-25" cx="61.34" cy="3.05" r="1"/><text class="cls-26" transform="translate(4.83 38.35)">[ ------- ]</text><g class="cls-27"><g class="cls-28"><g id="Illustrations-Dark-V2-3" data-name="Illustrations-Dark-V2"><g id="placeholder-3-3" data-name="placeholder-3"><g class="cls-29"><path id="Shape-11" data-name="Shape" class="cls-30" d="M26.3,66.18c21.93,0,33.92-28.27,56.68-28.27s37,28.27,57,28.27Z"/></g><g class="cls-31"><path id="Shape-12" data-name="Shape" class="cls-32" d="M26.08,73.21c16.74,0,25.88-25.49,43.25-25.49S97.58,73.21,112.8,73.21Z"/></g></g></g></g></g></g></svg>