<svg xmlns="http://www.w3.org/2000/svg" xmlns:xlink="http://www.w3.org/1999/xlink" viewBox="0 0 63.5 63.5"><defs><style>.cls-1,.cls-27{fill:#fff;}.cls-2,.cls-22{fill:none;}.cls-3{clip-path:url(#clip-path);}.cls-4{fill:#010101;}.cls-5{mask:url(#mask);}.cls-12,.cls-14,.cls-16,.cls-18,.cls-6,.cls-8{fill-rule:evenodd;}.cls-12,.cls-16,.cls-21,.cls-6,.cls-8{isolation:isolate;}.cls-12,.cls-6{opacity:0.52;}.cls-6{fill:url(#linear-gradient);}.cls-7{mask:url(#mask-2-2);}.cls-16,.cls-8{opacity:0.8;}.cls-8{fill:url(#linear-gradient-2);}.cls-9{clip-path:url(#clip-path-2);}.cls-10{clip-path:url(#clip-path-3);}.cls-11{mask:url(#mask-3);}.cls-12{fill:url(#linear-gradient-3);}.cls-13{mask:url(#mask-4);}.cls-14{fill:url(#linear-gradient-4);}.cls-15{mask:url(#mask-5);}.cls-16{fill:url(#linear-gradient-5);}.cls-17{mask:url(#mask-6);}.cls-18{fill:url(#linear-gradient-6);}.cls-19{mask:url(#mask-7);}.cls-20{fill:url(#linear-gradient-7);}.cls-21{opacity:0.2;fill:url(#linear-gradient-8);}.cls-22,.cls-23{stroke:#d1d3d4;stroke-miterlimit:10;}.cls-23{fill:#d1d3d4;}.cls-24{fill:#fbb040;}.cls-25{fill:#00aeef;}.cls-26{fill:#ed1c24;}.cls-27{font-size:17px;font-family:Calibri-Bold, Calibri;font-weight:700;}</style><clipPath id="clip-path"><rect class="cls-2" x="-82.35" y="5.4" width="61.54" height="56.99"/></clipPath><mask id="mask" x="-98.82" y="3.4" width="126.07" height="62.45" maskUnits="userSpaceOnUse"><g id="mask-2"><rect id="path-1" class="cls-1" x="-86.08" y="3.4" width="94.71" height="60.46"/></g></mask><linearGradient id="linear-gradient" x1="-1512.76" y1="83.34" x2="-1512.69" y2="83.34" gradientTransform="matrix(1737, 0, 0, -443.52, 2627566.28, 37013.42)" gradientUnits="userSpaceOnUse"><stop offset="0" stop-color="#373737"/><stop offset="1" stop-color="#4a4a4a"/></linearGradient><mask id="mask-2-2" x="-86.08" y="3.4" width="140.44" height="62.45" maskUnits="userSpaceOnUse"><g id="mask-2-3" data-name="mask-2"><rect id="path-1-2" data-name="path-1" class="cls-1" x="-86.08" y="3.4" width="94.71" height="60.46"/></g></mask><linearGradient id="linear-gradient-2" x1="-1512.91" y1="83.6" x2="-1512.98" y2="83.6" gradientTransform="matrix(1570.5, 0, 0, -389.48, 2376079.04, 32611.25)" gradientUnits="userSpaceOnUse"><stop offset="0" stop-color="#575757"/><stop offset="1" stop-color="#7c7b7b"/></linearGradient><clipPath id="clip-path-2"><rect class="cls-2" x="0.5" y="5.3" width="62.05" height="34.15"/></clipPath><clipPath id="clip-path-3"><rect class="cls-2" x="1.14" y="5.4" width="61.54" height="56.99"/></clipPath><mask id="mask-3" x="-15.34" y="3.4" width="126.07" height="62.45" maskUnits="userSpaceOnUse"><g id="mask-2-4" data-name="mask-2"><rect id="path-1-3" data-name="path-1" class="cls-1" x="-2.6" y="3.4" width="94.71" height="60.46"/></g></mask><linearGradient id="linear-gradient-3" x1="-1512.71" y1="83.34" x2="-1512.64" y2="83.34" xlink:href="#linear-gradient"/><mask id="mask-4" x="-58.12" y="3.4" width="150.24" height="62.78" maskUnits="userSpaceOnUse"><g id="mask-2-5" data-name="mask-2"><rect id="path-1-4" data-name="path-1" class="cls-1" x="-2.6" y="3.4" width="94.71" height="60.46"/></g></mask><linearGradient id="linear-gradient-4" x1="-1512.22" y1="83.61" x2="-1512.29" y2="83.61" gradientTransform="matrix(1604.25, 0, 0, -389.48, 2426036.47, 32615.76)" gradientUnits="userSpaceOnUse"><stop offset="0" stop-color="#3a3a39"/><stop offset="1" stop-color="#303030"/></linearGradient><mask id="mask-5" x="-2.6" y="3.4" width="140.44" height="62.45" maskUnits="userSpaceOnUse"><g id="mask-2-6" data-name="mask-2"><rect id="path-1-5" data-name="path-1" class="cls-1" x="-2.6" y="3.4" width="94.71" height="60.46"/></g></mask><linearGradient id="linear-gradient-5" x1="-1512.86" y1="83.6" x2="-1512.93" y2="83.6" xlink:href="#linear-gradient-2"/><mask id="mask-6" x="-58.12" y="3.4" width="150.24" height="69.81" maskUnits="userSpaceOnUse"><g id="mask-2-7" data-name="mask-2"><rect id="path-1-6" data-name="path-1" class="cls-1" x="-2.6" y="3.4" width="94.71" height="60.46"/></g></mask><linearGradient id="linear-gradient-6" x1="-1511.86" y1="84.09" x2="-1511.79" y2="84.09" gradientTransform="matrix(1224, 0, 0, -351.21, 1850460.98, 29594.36)" gradientUnits="userSpaceOnUse"><stop offset="0" stop-color="#404040"/><stop offset="1" stop-color="#010101"/></linearGradient><mask id="mask-7" x="-2.6" y="3.4" width="94.71" height="60.46" maskUnits="userSpaceOnUse"><g id="mask-2-8" data-name="mask-2"><rect id="path-1-7" data-name="path-1" class="cls-1" x="-2.6" y="3.4" width="94.71" height="60.46"/></g></mask><linearGradient id="linear-gradient-7" x1="-1506.24" y1="83.23" x2="-1506.17" y2="83.23" gradientTransform="matrix(180, 0, 0, -180.11, 271134.01, 15009.53)" gradientUnits="userSpaceOnUse"><stop offset="0" stop-color="#515151"/><stop offset="1" stop-color="#6c6d6d"/></linearGradient><linearGradient id="linear-gradient-8" x1="-1508.92" y1="82.74" x2="-1508.85" y2="82.74" gradientTransform="matrix(292.5, 0, 0, -292.68, 441366.56, 24237.2)" gradientUnits="userSpaceOnUse"><stop offset="0" stop-color="#dcdcdc"/><stop offset="1" stop-color="#e3e0e0"/></linearGradient></defs><g id="Layer_1" data-name="Layer 1"><g class="cls-3"><g id="Illustrations-Dark-V2"><g id="placeholder-3"><g id="Shape"><rect id="path-1-9" data-name="path-1" class="cls-4" x="-86.08" y="3.4" width="94.71" height="60.46"/></g><g class="cls-5"><path id="Shape-2" data-name="Shape" class="cls-6" d="M-97.82,65.85c23.75,0,36.73-32.19,61.37-32.19S3.64,65.85,25.24,65.85Z"/></g><g class="cls-7"><path id="Shape-3" data-name="Shape" class="cls-8" d="M-58.72,65.85c21.47,0,33.2-28.26,55.48-28.26S33,65.85,52.54,65.85Z"/></g></g></g></g><g class="cls-9"><g class="cls-10"><g id="Illustrations-Dark-V2-2" data-name="Illustrations-Dark-V2"><g id="placeholder-3-2" data-name="placeholder-3"><g id="Shape-4" data-name="Shape"><rect id="path-1-10" data-name="path-1" class="cls-4" x="-2.6" y="3.4" width="94.71" height="60.46"/></g><g class="cls-11"><path id="Shape-5" data-name="Shape" class="cls-12" d="M-14.34,65.85C9.41,65.85,22.39,33.66,47,33.66s40.1,32.19,61.69,32.19Z"/></g><g class="cls-13"><path id="Shape-6" data-name="Shape" class="cls-14" d="M-57.2,66.18c21.93,0,33.92-28.27,56.68-28.27s37,28.27,57,28.27Z"/></g><g class="cls-15"><path id="Shape-7" data-name="Shape" class="cls-16" d="M24.76,65.85c21.47,0,33.21-28.26,55.49-28.26S116.5,65.85,136,65.85Z"/></g><g class="cls-17"><path id="Shape-8" data-name="Shape" class="cls-18" d="M-57.42,73.21c16.74,0,25.88-25.49,43.25-25.49S14.08,73.21,29.3,73.21Z"/></g><g class="cls-19"><ellipse id="Shape-9" data-name="Shape" class="cls-20" cx="17.43" cy="19.88" rx="6.53" ry="6.54"/></g><g class="cls-19"><ellipse id="Shape-10" data-name="Shape" class="cls-21" cx="17.45" cy="19.9" rx="10.61" ry="10.62"/></g></g></g></g></g><rect class="cls-22" x="0.5" y="0.79" width="62.5" height="62.5"/><rect class="cls-23" x="0.5" y="0.79" width="62.5" height="4.51"/><circle class="cls-24" cx="55.06" cy="3.05" r="1"/><circle class="cls-25" cx="58.06" cy="3.05" r="1"/><circle class="cls-26" cx="61.06" cy="3.05" r="1"/><text class="cls-27" transform="translate(5.41 26.91)">[ ------- ]</text></g></svg>