<svg xmlns="http://www.w3.org/2000/svg" xmlns:xlink="http://www.w3.org/1999/xlink" viewBox="0 0 63.5 63.5"><defs><style>.cls-1{fill:#fff;}.cls-16,.cls-17,.cls-2,.cls-24{fill:none;}.cls-3{clip-path:url(#clip-path);}.cls-4{fill:#010101;}.cls-5{mask:url(#mask);}.cls-10,.cls-12,.cls-21,.cls-23,.cls-6,.cls-8{fill-rule:evenodd;}.cls-10,.cls-15,.cls-6{isolation:isolate;}.cls-6{opacity:0.52;fill:url(#linear-gradient);}.cls-7{mask:url(#mask-2-2);}.cls-8{fill:url(#linear-gradient-2);}.cls-9{mask:url(#mask-3);}.cls-10{opacity:0.8;fill:url(#linear-gradient-3);}.cls-11{mask:url(#mask-4);}.cls-12{fill:url(#linear-gradient-4);}.cls-13{mask:url(#mask-5);}.cls-14{fill:url(#linear-gradient-5);}.cls-15{opacity:0.2;fill:url(#linear-gradient-6);}.cls-16,.cls-17{stroke:#f1f2f2;stroke-linecap:round;}.cls-16,.cls-17,.cls-24,.cls-25{stroke-miterlimit:10;}.cls-16{stroke-width:4px;}.cls-17{stroke-width:2px;}.cls-18{clip-path:url(#clip-path-2);}.cls-19{clip-path:url(#clip-path-3);}.cls-20{mask:url(#mask-7);}.cls-21{fill:url(#linear-gradient-7);}.cls-22{mask:url(#mask-8);}.cls-23{fill:url(#linear-gradient-8);}.cls-24,.cls-25{stroke:#d1d3d4;}.cls-25{fill:#d1d3d4;}.cls-26{fill:#fbb040;}.cls-27{fill:#00aeef;}.cls-28{fill:#ed1c24;}</style><clipPath id="clip-path"><rect class="cls-2" x="0.97" y="5.5" width="61.54" height="56.99"/></clipPath><mask id="mask" x="-15.5" y="3.5" width="126.07" height="62.45" maskUnits="userSpaceOnUse"><g id="mask-2"><rect id="path-1" class="cls-1" x="-2.76" y="3.5" width="94.71" height="60.46"/></g></mask><linearGradient id="linear-gradient" x1="72.87" y1="83.34" x2="72.95" y2="83.34" gradientTransform="matrix(1737, 0, 0, -443.52, -126597.91, 37013.42)" gradientUnits="userSpaceOnUse"><stop offset="0" stop-color="#373737"/><stop offset="1" stop-color="#4a4a4a"/></linearGradient><mask id="mask-2-2" x="-58.29" y="3.5" width="150.24" height="62.78" maskUnits="userSpaceOnUse"><g id="mask-2-3" data-name="mask-2"><rect id="path-1-2" data-name="path-1" class="cls-1" x="-2.76" y="3.5" width="94.71" height="60.46"/></g></mask><linearGradient id="linear-gradient-2" x1="73.29" y1="83.61" x2="73.22" y2="83.61" gradientTransform="matrix(1604.25, 0, 0, -389.48, -117520.04, 32615.76)" gradientUnits="userSpaceOnUse"><stop offset="0" stop-color="#3a3a39"/><stop offset="1" stop-color="#303030"/></linearGradient><mask id="mask-3" x="-2.76" y="3.5" width="140.44" height="62.45" maskUnits="userSpaceOnUse"><g id="mask-2-4" data-name="mask-2"><rect id="path-1-3" data-name="path-1" class="cls-1" x="-2.76" y="3.5" width="94.71" height="60.46"/></g></mask><linearGradient id="linear-gradient-3" x1="72.63" y1="83.6" x2="72.56" y2="83.6" gradientTransform="matrix(1570.5, 0, 0, -389.48, -113932.71, 32611.25)" gradientUnits="userSpaceOnUse"><stop offset="0" stop-color="#575757"/><stop offset="1" stop-color="#7c7b7b"/></linearGradient><mask id="mask-4" x="-58.29" y="3.5" width="150.24" height="69.81" maskUnits="userSpaceOnUse"><g id="mask-2-5" data-name="mask-2"><rect id="path-1-4" data-name="path-1" class="cls-1" x="-2.76" y="3.5" width="94.71" height="60.46"/></g></mask><linearGradient id="linear-gradient-4" x1="73.34" y1="84.09" x2="73.41" y2="84.09" gradientTransform="matrix(1224, 0, 0, -351.21, -89828.72, 29594.36)" gradientUnits="userSpaceOnUse"><stop offset="0" stop-color="#404040"/><stop offset="1" stop-color="#010101"/></linearGradient><mask id="mask-5" x="-2.76" y="3.5" width="94.71" height="60.46" maskUnits="userSpaceOnUse"><g id="mask-2-6" data-name="mask-2"><rect id="path-1-5" data-name="path-1" class="cls-1" x="-2.76" y="3.5" width="94.71" height="60.46"/></g></mask><linearGradient id="linear-gradient-5" x1="71.45" y1="83.23" x2="71.52" y2="83.23" gradientTransform="matrix(180, 0, 0, -180.11, -12849.49, 15009.53)" gradientUnits="userSpaceOnUse"><stop offset="0" stop-color="#515151"/><stop offset="1" stop-color="#6c6d6d"/></linearGradient><linearGradient id="linear-gradient-6" x1="72.15" y1="82.74" x2="72.23" y2="82.74" gradientTransform="matrix(292.5, 0, 0, -292.68, -21098.19, 24237.2)" gradientUnits="userSpaceOnUse"><stop offset="0" stop-color="#dcdcdc"/><stop offset="1" stop-color="#e3e0e0"/></linearGradient><clipPath id="clip-path-2"><rect class="cls-2" x="84" y="5.01" width="62.05" height="34.15"/></clipPath><clipPath id="clip-path-3"><rect class="cls-2" x="84.64" y="5.1" width="61.54" height="56.99"/></clipPath><mask id="mask-7" x="25.38" y="3.1" width="150.24" height="62.78" maskUnits="userSpaceOnUse"/><linearGradient id="linear-gradient-7" x1="73.34" y1="83.61" x2="73.27" y2="83.61" xlink:href="#linear-gradient-2"/><mask id="mask-8" x="25.38" y="3.1" width="150.24" height="69.81" maskUnits="userSpaceOnUse"/><linearGradient id="linear-gradient-8" x1="73.41" y1="84.09" x2="73.48" y2="84.09" xlink:href="#linear-gradient-4"/></defs><g id="Layer_2" data-name="Layer 2"><g class="cls-3"><g id="Illustrations-Dark-V2"><g id="placeholder-3"><g id="Shape"><rect id="path-1-7" data-name="path-1" class="cls-4" x="-2.76" y="3.5" width="94.71" height="60.46"/></g><g class="cls-5"><path id="Shape-2" data-name="Shape" class="cls-6" d="M-14.5,66C9.24,66,22.23,33.76,46.87,33.76S87,66,108.56,66Z"/></g><g class="cls-7"><path id="Shape-3" data-name="Shape" class="cls-8" d="M-57.36,66.28C-35.43,66.28-23.44,38-.69,38s37,28.27,57,28.27Z"/></g><g class="cls-9"><path id="Shape-4" data-name="Shape" class="cls-10" d="M24.59,66C46.06,66,57.8,37.69,80.08,37.69S116.33,66,135.86,66Z"/></g><g class="cls-11"><path id="Shape-5" data-name="Shape" class="cls-12" d="M-57.58,73.31c16.73,0,25.88-25.49,43.24-25.49S13.92,73.31,29.13,73.31Z"/></g><g class="cls-13"><ellipse id="Shape-6" data-name="Shape" class="cls-14" cx="17.27" cy="19.98" rx="6.53" ry="6.54"/></g><g class="cls-13"><ellipse id="Shape-7" data-name="Shape" class="cls-15" cx="17.29" cy="20" rx="10.61" ry="10.62"/></g></g></g></g><line class="cls-16" x1="23.02" y1="30.81" x2="40.48" y2="30.81"/><line class="cls-17" x1="12.16" y1="36.88" x2="51.34" y2="36.88"/><line class="cls-17" x1="12.16" y1="40.88" x2="51.34" y2="40.88"/><line class="cls-17" x1="12.16" y1="44.88" x2="51.34" y2="44.88"/><g class="cls-18"><g class="cls-19"><g id="Illustrations-Dark-V2-2" data-name="Illustrations-Dark-V2"><g id="placeholder-3-2" data-name="placeholder-3"><g class="cls-20"><path id="Shape-8" data-name="Shape" class="cls-21" d="M26.3,65.89c21.93,0,33.92-28.27,56.68-28.27s37,28.27,57,28.27Z"/></g><g class="cls-22"><path id="Shape-9" data-name="Shape" class="cls-23" d="M26.08,72.91c16.74,0,25.88-25.49,43.25-25.49S97.58,72.91,112.8,72.91Z"/></g></g></g></g></g></g><g id="Layer_1" data-name="Layer 1"><rect class="cls-24" x="0.5" y="0.5" width="62.5" height="62.5"/><rect class="cls-25" x="0.5" y="0.5" width="62.5" height="4.51"/><circle class="cls-26" cx="55.06" cy="2.75" r="1"/><circle class="cls-27" cx="58.06" cy="2.75" r="1"/><circle class="cls-28" cx="61.06" cy="2.75" r="1"/></g></svg>