<svg id="Layer_1" data-name="Layer 1" xmlns="http://www.w3.org/2000/svg" viewBox="0 0 118.6 43.5"><defs><style>.cls-1{fill:#444545;}</style></defs><path class="cls-1" d="M59,105.36a6.18,6.18,0,0,0-.82-3.35,6.42,6.42,0,0,0-2.09-2.09,2.17,2.17,0,0,0-.33-.19,11,11,0,0,0-1.33-.66c-.34-.14-.68-.27-1-.38-.94-.3-1.85-.56-2.71-.79a8.45,8.45,0,0,1-2.12-.82,1.42,1.42,0,0,1-.81-1.3,1.29,1.29,0,0,1,.72-1.16,4.28,4.28,0,0,1,2.07-.41,6.84,6.84,0,0,1,2.76.55,5.43,5.43,0,0,1,1.13.67,6.34,6.34,0,0,1,1.17,1.15l.16-.16,3.1-3.1a.64.64,0,0,0,0-.87,9.32,9.32,0,0,0-3.15-2.37L55.49,90a9.55,9.55,0,0,0-1.1-.4A13,13,0,0,0,50.45,89a11,11,0,0,0-4.6.88,7,7,0,0,0-3,2.46,6.59,6.59,0,0,0-1,3.72,6.15,6.15,0,0,0,.81,3.33,5.83,5.83,0,0,0,2.11,2,14.21,14.21,0,0,0,2.72,1.17c.95.29,1.86.56,2.72.79a7.84,7.84,0,0,1,2.12.86,1.61,1.61,0,0,1,.81,1.44,1.36,1.36,0,0,1-.76,1.25,4.86,4.86,0,0,1-2.26.42,8.73,8.73,0,0,1-3.4-.65,7.49,7.49,0,0,1-2.26-1.5.63.63,0,0,0-.89,0l-2.73,2.76a.64.64,0,0,0,0,.89A10.49,10.49,0,0,0,43,110.59a14.37,14.37,0,0,0,4.67,1.72,10.42,10.42,0,0,0,1.67.19,12.71,12.71,0,0,0,5-.67,7.79,7.79,0,0,0,1.33-.64,6.7,6.7,0,0,0,.87-.6A6.39,6.39,0,0,0,59,105.36Z" transform="translate(-40.61 -77.89)"/><path class="cls-1" d="M75.8,93.53a8.84,8.84,0,0,0-.7-1.06,8.64,8.64,0,0,0-2.36-2.14,8.07,8.07,0,0,0-4.42-1.24,9.25,9.25,0,0,0-4.58,1.12,7.8,7.8,0,0,0-.91.58.65.65,0,0,1-1-.53V90.2a.65.65,0,0,0-.64-.65H59.44A.65.65,0,0,0,59,90.69,10.24,10.24,0,0,1,60.3,92.1l.56.74-.28.45a3,3,0,0,0-.16.31l-4,4a.65.65,0,0,0,.13,1l.23.14a7.85,7.85,0,0,1,2.52,2.51,8.39,8.39,0,0,1-1.84,10.32c-.17.13-.34.27-.52.39h4.26a.65.65,0,0,0,.64-.65V99.13a4.78,4.78,0,0,1,.58-2.37A4,4,0,0,1,64,95.18a4.8,4.8,0,0,1,2.32-.56,4.3,4.3,0,0,1,4.51,4.51v12.23a.65.65,0,0,0,.64.65h4.8a.65.65,0,0,0,.65-.65V97.78a8.43,8.43,0,0,0-1-4.11A.91.91,0,0,0,75.8,93.53Z" transform="translate(-40.61 -77.89)"/><path class="cls-1" d="M91.08,90.26a.64.64,0,0,1-1,.52,7.89,7.89,0,0,0-1.15-.71,9.23,9.23,0,0,0-4.32-1,10.4,10.4,0,0,0-7.82,3.45,3.79,3.79,0,0,1,.2.34,9.78,9.78,0,0,1,1.29,4.9v12.27a.64.64,0,0,0,.26.53c.17.12.35.24.54.35a10.17,10.17,0,0,0,5.53,1.54,9.11,9.11,0,0,0,4.32-1,7.94,7.94,0,0,0,1.15-.72.64.64,0,0,1,1,.52v.09a.65.65,0,0,0,.65.65h.82a.65.65,0,0,0,.65-.65V90.2a.65.65,0,0,0-.65-.65h-.82a.65.65,0,0,0-.65.65Zm-1.25,14.89a5.41,5.41,0,0,1-4.14,1.7,5.64,5.64,0,0,1-3-.77,5.21,5.21,0,0,1-2-2.14,6.61,6.61,0,0,1-.73-3.18,6.53,6.53,0,0,1,.73-3.14,5.27,5.27,0,0,1,2-2.14,5.64,5.64,0,0,1,3-.77,5.72,5.72,0,0,1,3,.77,5.3,5.3,0,0,1,2,2.14,6.64,6.64,0,0,1,.72,3.14A6.21,6.21,0,0,1,89.83,105.15Z" transform="translate(-40.61 -77.89)"/><path class="cls-1" d="M116.44,106.75a12.31,12.31,0,0,0,1.42-6,12.44,12.44,0,0,0-1.42-6,10.62,10.62,0,0,0-1.9-2.6,10.46,10.46,0,0,0-1.33-1.15c-.21-.15-.43-.29-.65-.43A10.26,10.26,0,0,0,107,89.09a9.13,9.13,0,0,0-4.35,1,8.58,8.58,0,0,0-1,.63.65.65,0,0,1-1-.54h0a.65.65,0,0,0-.65-.65H95.18a.65.65,0,0,0-.65.65v30.54a.65.65,0,0,0,.65.65h4.74a.65.65,0,0,0,.65-.65v-9.35a.64.64,0,0,1,1-.54,10.74,10.74,0,0,0,1.05.62,9.38,9.38,0,0,0,4.37,1,10.26,10.26,0,0,0,5.57-1.54c.22-.14.44-.28.65-.43a9.71,9.71,0,0,0,1.33-1.15A10.81,10.81,0,0,0,116.44,106.75Zm-5.53-2.81a5.21,5.21,0,0,1-2,2.14,5.77,5.77,0,0,1-3,.77,5.68,5.68,0,0,1-3-.77,5.28,5.28,0,0,1-2-2.14,6.72,6.72,0,0,1-.72-3.18,6.64,6.64,0,0,1,.72-3.14,5.28,5.28,0,0,1,2-2.14,5.7,5.7,0,0,1,2.93-.77,5.77,5.77,0,0,1,3,.77,5.28,5.28,0,0,1,2,2.14,6.64,6.64,0,0,1,.72,3.14A6.72,6.72,0,0,1,110.91,103.94Z" transform="translate(-40.61 -77.89)"/><path class="cls-1" d="M129.5,89.92a.64.64,0,0,0-.5-.63,8.71,8.71,0,0,0-1.87-.2,9.3,9.3,0,0,0-4.58,1.12,7.8,7.8,0,0,0-.91.58.65.65,0,0,1-1-.53V90.2a.65.65,0,0,0-.64-.65h-5.44v.56a.64.64,0,0,0,.23.49,12.7,12.7,0,0,1,2.85,3.58,12.11,12.11,0,0,1,.79,1.85,12.29,12.29,0,0,1,.58,2.26,14.75,14.75,0,0,1,.2,2.51,13.84,13.84,0,0,1-1.57,6.58,12.42,12.42,0,0,1-2.85,3.58.64.64,0,0,0-.23.49V112H120a.65.65,0,0,0,.64-.65V99.13a4.78,4.78,0,0,1,.58-2.37,4.14,4.14,0,0,1,1.61-1.58,4.81,4.81,0,0,1,2.33-.56,4.3,4.3,0,0,1,4.5,4.51v12.23a.65.65,0,0,0,.65.65h3.77a.65.65,0,0,0,.64-.65V96.88a.65.65,0,0,0-.64-.65h-3.91a.65.65,0,0,1-.65-.65Z" transform="translate(-40.61 -77.89)"/><polygon class="cls-1" points="113.35 2.78 113.35 2.81 113.36 2.8 113.35 2.78"/><path class="cls-1" d="M154,88.91V82.28a.65.65,0,0,0-1.11-.46l-4.59,4.65-.38-.38v1.48a.65.65,0,0,0,.64.65h.93a.65.65,0,0,1,.65.65v0a.65.65,0,0,1-.65.64h-7.33V87a3.16,3.16,0,0,1,3.49-3.48,3.81,3.81,0,0,1,.93.09,2.64,2.64,0,0,1,.6.19,3.19,3.19,0,0,1,.74.45,3.9,3.9,0,0,1,.38.33l3.86-3.9-.48-.47a10,10,0,0,0-1.86-1.33l-.5-.25a8.89,8.89,0,0,0-3.77-.74,10,10,0,0,0-5,1.21,8.46,8.46,0,0,0-3.3,3.28A9.59,9.59,0,0,0,136,87.14v1.77a.64.64,0,0,1-.64.64h-4.56v4.7a.65.65,0,0,0,.65.65H136v16.46a.65.65,0,0,0,.65.65h4.79a.65.65,0,0,0,.65-.65V94.9h7.33a.65.65,0,0,1,.65.65v0a.65.65,0,0,1-.65.65h-.93a.65.65,0,0,0-.64.65v14.48a.65.65,0,0,0,.64.65h4.79a.65.65,0,0,0,.65-.65V95.55a.65.65,0,0,1,.65-.65h3.95a.65.65,0,0,0,.65-.65v-4a.65.65,0,0,0-.65-.65h-3.95A.65.65,0,0,1,154,88.91Z" transform="translate(-40.61 -77.89)"/></svg>